<svg xmlns="http://www.w3.org/2000/svg" width="24" height="24" fill="none"><path fill="#A37417" d="m21.842 5.745.06.103c.028.047.056.097.083.146l.009.013.06.11c3.02 5.521 1.149 12.484-4.306 15.726a11.716 11.716 0 0 1-5.828 1.65 11.794 11.794 0 0 1-5.786-1.428 11.635 11.635 0 0 1-3.46-2.858c-.31-.377-.6-.778-.866-1.202l-.009-.014c-.029-.048-.06-.095-.088-.143a2.513 2.513 0 0 1-.06-.102C-1.664 12.171.168 4.964 5.745 1.65A11.72 11.72 0 0 1 15.087.488a11.711 11.711 0 0 1 6.756 5.257h-.001Z"/><path fill="#6D3C1B" d="M22.142 6.252c3.314 5.575 1.483 12.78-4.095 16.096a11.687 11.687 0 0 1-3.38 1.354c-.979.226-1.974.32-2.959.292-2-.06-3.963-.63-5.688-1.657a11.675 11.675 0 0 1-4.07-4.085c-.03-.05-.06-.1-.088-.153-.02-.032-.038-.063-.055-.095L1.8 17.99C-1.306 12.452.557 5.42 6.047 2.158A11.706 11.706 0 0 1 14.93.867a11.714 11.714 0 0 1 7.056 5.126l.009.014c.02.03.038.062.057.093.003.003.005.006.005.008.03.046.059.094.087.142v.002Z"/><path fill="url(#a)" d="m21.962 5.947.088.154c.003.002.005.005.005.008 3.186 5.554 1.335 12.652-4.19 15.935-.971.577-1.992.998-3.033 1.27a11.764 11.764 0 0 1-8.744-1.14 11.72 11.72 0 0 1-4.377-4.328C-1.523 12.288.32 5.149 5.864 1.854A11.686 11.686 0 0 1 10.513.28a11.792 11.792 0 0 1 4.512.356A11.721 11.721 0 0 1 21.9 5.848l.06.1Z"/><path fill="url(#b)" stroke="#281401" stroke-miterlimit="10" stroke-width=".04" d="M21.211 6.421c3.067 5.16 1.37 11.828-3.789 14.894-5.159 3.066-11.827 1.37-14.893-3.79-3.066-5.159-1.37-11.827 3.789-14.893C11.476-.434 18.145 1.262 21.21 6.42h.001Z"/><path fill="url(#c)" d="M21.025 6.522c3 5.046 1.338 11.569-3.707 14.568-5.047 3-11.568 1.34-14.567-3.706-3-5.047-1.34-11.568 3.706-14.567 5.046-3 11.569-1.341 14.568 3.705Z"/><g style="mix-blend-mode:multiply"><path fill="#3A2415" d="M20.884 8.799a.63.63 0 0 1-.244.297c-.215.156-.458.256-.7.358-.338.145-.68.28-1.004.455l-.004.002c-.033.02-.069.036-.103.056-.63.345-1.266.694-1.812 1.169-1.178 1.025-2.18 2.688-1.936 4.305.1.655.37 1.226.854 1.687.082.077.176.141.27.204a.48.48 0 0 0 .519.026c.193-.102.379-.22.563-.337.245-.155.495-.298.785-.35.34-.062.707.046.98.255-.265-.048-.458.08-.63.24-.181.165-.35.345-.522.518-.051.05-.105.099-.16.143a.568.568 0 0 1-.297.136c.043.04.083.074.117.114a.717.717 0 0 1 .134.315c.023.117.044.235.066.352.074.386.198.644.586.848-.105-.006-.208-.009-.311-.018-.512-.046-.892-.3-1.158-.734-.104-.171-.207-.342-.314-.509a1.457 1.457 0 0 0-.786-.613 3.634 3.634 0 0 1-.451-.185c-.007.16-.024.32-.052.484-.063.346-.005.676.164.984.095.175.196.347.296.52.255.44.296.896.092 1.367-.041.095-.09.187-.133.282.007-.439-.16-.67-.465-.92l-.277-.226a.73.73 0 0 1-.213-.27c-.018-.048-.028-.1-.043-.156a.572.572 0 0 1-.262.195 2.017 2.017 0 0 1-.203.072c-.234.07-.472.132-.704.211-.223.076-.428.185-.511.44-.054-.34.027-.713.243-.982.185-.23.43-.381.683-.522.19-.106.383-.213.565-.335a.48.48 0 0 0 .225-.468c-.01-.111-.021-.225-.05-.334-.173-.645-.546-1.156-1.074-1.556-1.304-.988-3.242-.902-4.707-.357-.677.253-1.288.644-1.892 1.032-.033.021-.064.044-.099.065l-.004.002c-.308.2-.59.438-.88.666-.204.163-.409.328-.648.443a.633.633 0 0 1-.377.072c-.15-.024-.225-.113-.21-.262a.799.799 0 0 1 .056-.232c.076-.177.157-.353.245-.525.094-.188.153-.38.178-.593.118-.991.523-1.847 1.25-2.54.514-.492 1.126-.82 1.793-1.054a.227.227 0 0 0 .102-.073c.29-.398.652-.718 1.072-.972a4.452 4.452 0 0 1 1.499-.56c.143-.027.288-.044.433-.065-.463.356-.843.769-1.044 1.33l.021.008.065.004c.451.022.894.097 1.32.246.411.143.793.32 1.142.531A5.9 5.9 0 0 1 13 12.229c.074-.446.219-.87.415-1.277.01-.02.02-.04.027-.059.002-.004.002-.01.003-.023-.588-.091-1.132.045-1.667.282.088-.117.173-.237.265-.35.34-.42.74-.773 1.208-1.048a3.594 3.594 0 0 1 1.367-.478.227.227 0 0 0 .112-.054c.524-.474 1.105-.855 1.782-1.072.957-.306 1.902-.253 2.828.117.199.079.398.12.607.127a9 9 0 0 1 .578.036.8.8 0 0 1 .231.063c.138.058.18.167.13.309l-.002-.003Z"/><path fill="url(#d)" d="M20.738 9.028a.63.63 0 0 1-.245.296c-.215.156-.458.257-.7.359-.338.144-.68.279-1.004.454l-.004.003c-.033.02-.068.036-.102.055-.632.346-1.267.695-1.813 1.17-1.177 1.025-2.18 2.687-1.936 4.305.1.655.37 1.226.855 1.687.081.077.176.141.268.204a.48.48 0 0 0 .52.025c.193-.102.38-.22.563-.336.245-.155.495-.298.785-.35.34-.062.707.046.98.255-.265-.049-.458.079-.63.239-.181.165-.349.346-.522.518-.051.05-.104.1-.16.143a.567.567 0 0 1-.297.137c.043.04.084.074.117.114a.718.718 0 0 1 .134.315c.023.117.044.235.066.352.074.386.198.644.586.847-.105-.006-.208-.008-.31-.017-.512-.046-.893-.3-1.159-.735-.104-.17-.207-.341-.314-.508a1.457 1.457 0 0 0-.786-.614 3.667 3.667 0 0 1-.451-.184 3.62 3.62 0 0 1-.052.484 1.46 1.46 0 0 0 .164.984c.095.175.196.347.296.52.255.44.296.896.092 1.367-.041.095-.09.187-.133.281.008-.438-.16-.67-.465-.92l-.277-.226a.729.729 0 0 1-.213-.268c-.018-.05-.028-.101-.043-.157a.572.572 0 0 1-.262.195 2.043 2.043 0 0 1-.202.072c-.235.07-.473.131-.705.211-.223.076-.428.185-.51.44-.055-.34.026-.713.242-.983.185-.23.43-.38.683-.521.19-.106.383-.213.565-.335a.48.48 0 0 0 .226-.468c-.011-.111-.022-.225-.052-.334-.172-.645-.545-1.156-1.073-1.556-1.304-.988-3.242-.902-4.707-.357-.677.252-1.288.643-1.892 1.032-.033.02-.064.044-.099.065l-.004.002c-.308.2-.59.438-.88.666-.204.163-.409.328-.648.442a.632.632 0 0 1-.377.073c-.15-.025-.224-.113-.21-.262a.8.8 0 0 1 .056-.232c.076-.177.157-.353.245-.525.094-.188.153-.381.178-.594.119-.99.524-1.846 1.25-2.54.514-.491 1.126-.82 1.794-1.053a.228.228 0 0 0 .1-.073c.29-.399.653-.719 1.073-.972a4.453 4.453 0 0 1 1.499-.56c.143-.027.288-.044.434-.065-.464.356-.844.769-1.045 1.329.013.005.017.008.021.008a4.682 4.682 0 0 1 1.386.25c.41.144.792.32 1.141.532-.02-.408.007-.827.078-1.256.074-.446.22-.87.415-1.277.01-.02.02-.04.027-.06.002-.003.002-.008.004-.022-.589-.091-1.133.044-1.667.282.087-.118.172-.238.264-.35.34-.42.741-.773 1.209-1.048a3.594 3.594 0 0 1 1.366-.478.227.227 0 0 0 .112-.054c.524-.474 1.105-.855 1.782-1.072.957-.307 1.902-.253 2.828.117.199.079.398.12.607.127.193.005.386.018.578.036a.8.8 0 0 1 .231.063c.138.058.18.166.13.309l-.002-.003Z"/><path fill="#724401" d="M20.738 9.028a.63.63 0 0 1-.245.296c-.215.156-.458.257-.7.359-.338.144-.68.279-1.004.454l-.004.003c-.033.02-.068.036-.102.055-.632.346-1.267.695-1.813 1.17-1.177 1.025-2.18 2.687-1.936 4.305.1.655.37 1.226.855 1.687.081.077.176.141.268.204a.48.48 0 0 0 .52.025c.193-.102.38-.22.563-.336.245-.155.495-.298.785-.35.34-.062.707.046.98.255-.265-.049-.458.079-.63.239-.181.165-.349.346-.522.518-.051.05-.104.1-.16.143a.567.567 0 0 1-.297.137c.043.04.084.074.117.114a.718.718 0 0 1 .134.315c.023.117.044.235.066.352.074.386.198.644.586.847-.105-.006-.208-.008-.31-.017-.512-.046-.893-.3-1.159-.735-.104-.17-.207-.341-.314-.508a1.457 1.457 0 0 0-.786-.614 3.667 3.667 0 0 1-.451-.184 3.62 3.62 0 0 1-.052.484 1.46 1.46 0 0 0 .164.984c.095.175.196.347.296.52.255.44.296.896.092 1.367-.041.095-.09.187-.133.281.008-.438-.16-.67-.465-.92l-.277-.226a.729.729 0 0 1-.213-.268c-.018-.05-.028-.101-.043-.157a.572.572 0 0 1-.262.195 2.043 2.043 0 0 1-.202.072c-.235.07-.473.131-.705.211-.223.076-.428.185-.51.44-.055-.34.026-.713.242-.983.185-.23.43-.38.683-.521.19-.106.383-.213.565-.335a.48.48 0 0 0 .226-.468c-.011-.111-.022-.225-.052-.334-.172-.645-.545-1.156-1.073-1.556-1.304-.988-3.242-.902-4.707-.357-.677.252-1.288.643-1.892 1.032-.033.02-.064.044-.099.065l-.004.002c-.308.2-.59.438-.88.666-.204.163-.409.328-.648.442a.632.632 0 0 1-.377.073c-.15-.025-.224-.113-.21-.262a.8.8 0 0 1 .056-.232c.076-.177.157-.353.245-.525.094-.188.153-.381.178-.594.119-.99.524-1.846 1.25-2.54.514-.491 1.126-.82 1.794-1.053a.228.228 0 0 0 .1-.073c.29-.399.653-.719 1.073-.972a4.453 4.453 0 0 1 1.499-.56c.143-.027.288-.044.434-.065-.464.356-.844.769-1.045 1.329.013.005.017.008.021.008a4.682 4.682 0 0 1 1.386.25c.41.144.792.32 1.141.532-.02-.408.007-.827.078-1.256.074-.446.22-.87.415-1.277.01-.02.02-.04.027-.06.002-.003.002-.008.004-.022-.589-.091-1.133.044-1.667.282.087-.118.172-.238.264-.35.34-.42.741-.773 1.209-1.048a3.594 3.594 0 0 1 1.366-.478.227.227 0 0 0 .112-.054c.524-.474 1.105-.855 1.782-1.072.957-.307 1.902-.253 2.828.117.199.079.398.12.607.127.193.005.386.018.578.036a.8.8 0 0 1 .231.063c.138.058.18.166.13.309l-.002-.003Z" opacity=".85"/><path fill="#663703" d="M20.738 9.028a.63.63 0 0 1-.245.296c-.215.156-.458.257-.7.359-.338.144-.68.279-1.004.454l-.004.003c-.033.02-.068.036-.102.055-.632.346-1.267.695-1.813 1.17-1.177 1.025-2.18 2.687-1.936 4.305.1.655.37 1.226.855 1.687.081.077.176.141.268.204a.48.48 0 0 0 .52.025c.193-.102.38-.22.563-.336.245-.155.495-.298.785-.35.34-.062.707.046.98.255-.265-.049-.458.079-.63.239-.181.165-.349.346-.522.518-.051.05-.104.1-.16.143a.567.567 0 0 1-.297.137c.043.04.084.074.117.114a.718.718 0 0 1 .134.315c.023.117.044.235.066.352.074.386.198.644.586.847-.105-.006-.208-.008-.31-.017-.512-.046-.893-.3-1.159-.735-.104-.17-.207-.341-.314-.508a1.457 1.457 0 0 0-.786-.614 3.667 3.667 0 0 1-.451-.184 3.62 3.62 0 0 1-.052.484 1.46 1.46 0 0 0 .164.984c.095.175.196.347.296.52.255.44.296.896.092 1.367-.041.095-.09.187-.133.281.008-.438-.16-.67-.465-.92l-.277-.226a.729.729 0 0 1-.213-.268c-.018-.05-.028-.101-.043-.157a.572.572 0 0 1-.262.195 2.043 2.043 0 0 1-.202.072c-.235.07-.473.131-.705.211-.223.076-.428.185-.51.44-.055-.34.026-.713.242-.983.185-.23.43-.38.683-.521.19-.106.383-.213.565-.335a.48.48 0 0 0 .226-.468c-.011-.111-.022-.225-.052-.334-.172-.645-.545-1.156-1.073-1.556-1.304-.988-3.242-.902-4.707-.357-.677.252-1.288.643-1.892 1.032-.033.02-.064.044-.099.065l-.004.002c-.308.2-.59.438-.88.666-.204.163-.409.328-.648.442a.632.632 0 0 1-.377.073c-.15-.025-.224-.113-.21-.262a.8.8 0 0 1 .056-.232c.076-.177.157-.353.245-.525.094-.188.153-.381.178-.594.119-.99.524-1.846 1.25-2.54.514-.491 1.126-.82 1.794-1.053a.228.228 0 0 0 .1-.073c.29-.399.653-.719 1.073-.972a4.453 4.453 0 0 1 1.499-.56c.143-.027.288-.044.434-.065-.464.356-.844.769-1.045 1.329.013.005.017.008.021.008a4.682 4.682 0 0 1 1.386.25c.41.144.792.32 1.141.532-.02-.408.007-.827.078-1.256.074-.446.22-.87.415-1.277.01-.02.02-.04.027-.06.002-.003.002-.008.004-.022-.589-.091-1.133.044-1.667.282.087-.118.172-.238.264-.35.34-.42.741-.773 1.209-1.048a3.594 3.594 0 0 1 1.366-.478.227.227 0 0 0 .112-.054c.524-.474 1.105-.855 1.782-1.072.957-.307 1.902-.253 2.828.117.199.079.398.12.607.127.193.005.386.018.578.036a.8.8 0 0 1 .231.063c.138.058.18.166.13.309l-.002-.003Z" opacity=".85" style="mix-blend-mode:hard-light"/><path fill="#3A2415" d="m10.425 4.353-1.837-.505-1.71-.471v.003c-.031.125-.848 3.457-.85 3.46-.157.645.04 1.402.567 1.814a1.375 1.375 0 0 0 .481.25l.01.002a1.93 1.93 0 0 0 1.6-.25c.458-.306.853-.93.708-1.5-.072-.285-.28-.508-.517-.669 0 0-.162-.137-.416-.174-.256-.04-.606.021-.98.425l-.175.2-.468.537a.2.2 0 0 1-.277.01.171.171 0 0 1-.063-.146c.003-.088.151-.396.223-.547 0 0 .038-.223.053-.45.022-.357.163-.7.427-.943.2-.181.493-.347.917-.419.242-.041.525-.052.861-.02a.338.338 0 0 0 .18-.03.724.724 0 0 1 .394-.07c.186.018.406.123.617.417 0 0-.382-.131-.74.105l-.019.012s.02-.002.053 0c.124.011.441.087.657.57 0 0 .243.48.052 1.171-.041.151.029.292.143.362.083.05.187.065.29.021l.006-.002c.64-.271.973-.954.962-1.626-.015-.73-.427-1.34-1.149-1.537Zm-3.24-.461.645.206-.123.671-.179-.052-.482-.144.137-.67.003-.01-.001-.001Z"/><path fill="#3A2415" d="M11.235 8.307a.12.12 0 0 1-.041.165l-1.502.892a.12.12 0 0 1-.169-.157c.031-.062.113-.09.159-.142a.497.497 0 0 0 .093-.165c.044-.125.048-.261.045-.392-.001-.059-.004-.117-.006-.176a4.827 4.827 0 0 0-.056-.605c.238.21.498.38.778.53a.57.57 0 0 0 .36.067.608.608 0 0 0 .18-.06c.056-.029.126-.015.16.043Z"/><path fill="url(#e)" d="M10.245 4.307 8.585 3.85 6.88 3.38l-.18-.05s-.847 3.461-.849 3.463c-.172.705.08 1.544.721 1.923a1.611 1.611 0 0 0 .507.188l.01.002a1.968 1.968 0 0 0 1.42-.295c.458-.307.853-.931.709-1.502-.073-.283-.28-.506-.518-.667 0 0-.088-.074-.236-.129-.223-.083-.583-.119-.983.211a1.845 1.845 0 0 0-.177.168l-.642.736a.192.192 0 0 1-.098.056c-.118.027-.249-.055-.244-.191.004-.087.153-.397.224-.548 0 0 .038-.223.052-.45.022-.356.164-.7.428-.942.232-.211.586-.398 1.126-.445a3.35 3.35 0 0 1 .651.005.323.323 0 0 0 .18-.03.698.698 0 0 1 .574-.024c.14.057.292.17.436.372 0 0-.396-.137-.758.117 0 0 .082-.008.198.034l.034.013c.146.061.334.203.477.523 0 0 .242.481.05 1.172-.06.22.117.417.325.408a.333.333 0 0 0 .108-.025l.007-.003c.642-.272.973-.953.962-1.626-.015-.73-.427-1.339-1.149-1.537Zm-2.718.416-.661-.196.139-.681.178.057.468.149-.123.665-.001.007Z"/><path fill="url(#f)" d="M11.055 8.262a.12.12 0 0 1-.042.164l-1.501.893a.12.12 0 0 1-.169-.158c.031-.062.113-.09.159-.142a.497.497 0 0 0 .093-.165c.044-.125.047-.26.045-.391a13.292 13.292 0 0 0-.006-.177 4.823 4.823 0 0 0-.056-.605c.238.211.498.381.778.531a.57.57 0 0 0 .36.067.608.608 0 0 0 .18-.06c.055-.03.126-.016.16.042Z"/><g fill="#724401" opacity=".85"><path d="M10.245 4.307 8.585 3.85 6.88 3.38l-.18-.05s-.847 3.461-.849 3.463c-.172.705.08 1.544.721 1.923a1.611 1.611 0 0 0 .507.188l.01.002a1.968 1.968 0 0 0 1.42-.295c.458-.307.853-.931.709-1.502-.073-.283-.28-.506-.518-.667 0 0-.088-.074-.236-.129-.223-.083-.583-.119-.983.211a1.845 1.845 0 0 0-.177.168l-.642.736a.192.192 0 0 1-.098.056c-.118.027-.249-.055-.244-.191.004-.087.153-.397.224-.548 0 0 .038-.223.052-.45.022-.356.164-.7.428-.942.232-.211.586-.398 1.126-.445a3.35 3.35 0 0 1 .651.005.323.323 0 0 0 .18-.03.698.698 0 0 1 .574-.024c.14.057.292.17.436.372 0 0-.396-.137-.758.117 0 0 .082-.008.198.034l.034.013c.146.061.334.203.477.523 0 0 .242.481.05 1.172-.06.22.117.417.325.408a.333.333 0 0 0 .108-.025l.007-.003c.642-.272.973-.953.962-1.626-.015-.73-.427-1.339-1.149-1.537Zm-2.718.416-.661-.196.139-.681.178.057.468.149-.123.665-.001.007Z"/><path d="M11.055 8.262a.12.12 0 0 1-.042.164l-1.501.893a.12.12 0 0 1-.169-.158c.031-.062.113-.09.159-.142a.497.497 0 0 0 .093-.165c.044-.125.047-.26.045-.391a13.292 13.292 0 0 0-.006-.177 4.823 4.823 0 0 0-.056-.605c.238.211.498.381.778.531a.57.57 0 0 0 .36.067.608.608 0 0 0 .18-.06c.055-.03.126-.016.16.042Z"/></g><g fill="#663703" opacity=".85"><path d="M10.245 4.307 8.585 3.85 6.88 3.38l-.18-.05s-.847 3.461-.849 3.463c-.172.705.08 1.544.721 1.923a1.611 1.611 0 0 0 .507.188l.01.002a1.968 1.968 0 0 0 1.42-.295c.458-.307.853-.931.709-1.502-.073-.283-.28-.506-.518-.667 0 0-.088-.074-.236-.129-.223-.083-.583-.119-.983.211a1.845 1.845 0 0 0-.177.168l-.642.736a.192.192 0 0 1-.098.056c-.118.027-.249-.055-.244-.191.004-.087.153-.397.224-.548 0 0 .038-.223.052-.45.022-.356.164-.7.428-.942.232-.211.586-.398 1.126-.445a3.35 3.35 0 0 1 .651.005.323.323 0 0 0 .18-.03.698.698 0 0 1 .574-.024c.14.057.292.17.436.372 0 0-.396-.137-.758.117 0 0 .082-.008.198.034l.034.013c.146.061.334.203.477.523 0 0 .242.481.05 1.172-.06.22.117.417.325.408a.333.333 0 0 0 .108-.025l.007-.003c.642-.272.973-.953.962-1.626-.015-.73-.427-1.339-1.149-1.537Zm-2.718.416-.661-.196.139-.681.178.057.468.149-.123.665-.001.007Z"/><path d="M11.055 8.262a.12.12 0 0 1-.042.164l-1.501.893a.12.12 0 0 1-.169-.158c.031-.062.113-.09.159-.142a.497.497 0 0 0 .093-.165c.044-.125.047-.26.045-.391a13.292 13.292 0 0 0-.006-.177 4.823 4.823 0 0 0-.056-.605c.238.211.498.381.778.531a.57.57 0 0 0 .36.067.608.608 0 0 0 .18-.06c.055-.03.126-.016.16.042Z"/></g></g><path fill="url(#g)" d="m15.087.487-.062.149-.097.23-.252.61-.082.2-4.122 9.932-.08.196-1.68 4.046-.077.186L6.52 21.13l-.102.246-.287.69-.045.11-.067.163a11.675 11.675 0 0 1-3.38-3.052l.019-.045.014-.034.371-.895.119-.288 3.765-9.09.024-.058.662-1.6.159-.385.597-1.44.027-.067.408-.986.003-.004 1.203-2.904.1-.242.256-.62.144-.349.093-.224a11.722 11.722 0 0 1 4.48.432h.003Z"/><path fill="url(#h)" d="m21.9 5.848.062.1c.03.05.06.102.088.153.003.002.005.005.005.008l-.002.007-.44 1.044-.11.262-3.742 8.915-.088.21-.385.917-.068.163-.027.062-.11.26-.305.73-.104.247-1.287 3.065-.13.31-.316.751-.11.263-.164.388c-.98.226-1.974.32-2.96.292l.126-.3.085-.201.275-.657.11-.26 1.225-2.92.083-.197.38-.903.073-.177.29-.685.118-.282.496-1.183.112-.267 2.124-5.06.073-.171.912-2.173.093-.222 1.48-3.523.09-.215.34-.809.036-.089.024-.054c.594.626 1.13 1.326 1.589 2.1l.06.102v-.001Z"/><defs><linearGradient id="a" x1="14.25" x2="9.477" y1="23.455" y2=".45" gradientUnits="userSpaceOnUse"><stop stop-color="#D3A150"/><stop offset=".42" stop-color="#DDB264"/><stop offset="1" stop-color="#EFD186"/></linearGradient><linearGradient id="b" x1="6.317" x2="17.419" y1="2.636" y2="21.319" gradientUnits="userSpaceOnUse"><stop stop-color="#513A01"/><stop offset=".15" stop-color="#65440B"/><stop offset=".46" stop-color="#986024"/><stop offset=".58" stop-color="#AD6B2F"/><stop offset="1" stop-color="#FFE6CA"/></linearGradient><linearGradient id="c" x1="14.046" x2="9.727" y1="22.367" y2="1.548" gradientUnits="userSpaceOnUse"><stop stop-color="#D3A150"/><stop offset=".42" stop-color="#DDB264"/><stop offset="1" stop-color="#EFD186"/></linearGradient><linearGradient id="g" x1="3.538" x2="11.715" y1="27.812" y2=".287" gradientUnits="userSpaceOnUse"><stop stop-color="#fff" stop-opacity="0"/><stop offset="1" stop-color="#fff" stop-opacity=".3"/></linearGradient><linearGradient id="h" x1="12.316" x2="20.492" y1="30.42" y2="2.894" gradientUnits="userSpaceOnUse"><stop stop-color="#fff" stop-opacity="0"/><stop offset="1" stop-color="#fff" stop-opacity=".3"/></linearGradient><radialGradient id="d" cx="0" cy="0" r="1" gradientTransform="rotate(-30.72 35.887 -17.63) scale(7.67694)" gradientUnits="userSpaceOnUse"><stop stop-color="#fff"/><stop offset=".6" stop-color="#DDD"/><stop offset="1" stop-color="#CCC"/></radialGradient><radialGradient id="e" cx="0" cy="0" r="1" gradientTransform="rotate(-30.72 14.419 -11.844) scale(2.87943)" gradientUnits="userSpaceOnUse"><stop stop-color="#fff"/><stop offset=".6" stop-color="#DDD"/><stop offset="1" stop-color="#CCC"/></radialGradient><radialGradient id="f" cx="0" cy="0" r="1" gradientTransform="rotate(-30.72 20.038 -13.894) scale(.85394)" gradientUnits="userSpaceOnUse"><stop stop-color="#fff"/><stop offset=".6" stop-color="#DDD"/><stop offset="1" stop-color="#CCC"/></radialGradient></defs></svg>