<svg xmlns="http://www.w3.org/2000/svg" width="15" height="15" viewBox="0 0 15 15" fill="none">
  <g clip-path="url(#clip0_220_26744)">
    <path d="M4.2688 11.7877C4.2688 11.7877 4.9848 12.9913 5.88391 12.9764V9.79192L4.31458 8.80176L4.2688 11.7877ZM6.2954 10.1576V13.2202C6.2954 13.2202 7.17909 14.4999 7.92544 14.4999C8.6718 14.4999 9.55549 13.2202 9.55549 13.2202V10.1576H6.2954ZM11.5363 8.80176L9.96698 9.79192V12.9764C10.8661 12.9913 11.5821 11.7877 11.5821 11.7877L11.5363 8.80176Z" fill="#F3AE00"/>
    <path d="M4.2688 11.331C4.2688 11.331 4.9848 12.5347 5.88391 12.5192V9.33478L4.31458 8.34412L4.2688 11.331Z" fill="url(#paint0_linear_220_26744)"/>
    <path d="M6.29541 9.70044V12.763C6.29541 12.763 7.1791 14.0427 7.92545 14.0427C8.67181 14.0427 9.55549 12.763 9.55549 12.763V9.70044H6.29541Z" fill="url(#paint1_linear_220_26744)"/>
    <path opacity="0.2" d="M6.55652 11.737C6.97011 11.882 7.40452 11.9588 7.84274 11.9644C7.8592 11.9649 7.87479 11.9719 7.88614 11.9838C7.8975 11.9957 7.90372 12.0116 7.90345 12.0281L7.87807 13.6566C7.87807 13.7482 7.70143 13.7492 7.6263 13.6964C7.25511 13.4382 6.4993 12.7749 6.49731 12.3918C6.49731 12.1376 6.49731 11.8913 6.49731 11.7788C6.49741 11.7717 6.49917 11.7648 6.50247 11.7585C6.50576 11.7523 6.51049 11.7469 6.51627 11.7428C6.52204 11.7387 6.5287 11.7361 6.5357 11.7351C6.5427 11.7341 6.54983 11.7347 6.55652 11.737Z" fill="white"/>
    <path d="M11.5364 8.3446L9.96704 9.33527V12.5197C10.8662 12.5351 11.5822 11.3315 11.5822 11.3315L11.5364 8.3446Z" fill="url(#paint2_linear_220_26744)"/>
    <path d="M5.04158 10.4657C5.04158 10.4657 2.30494 9.92932 1.38942 7.51411C1.36918 7.46054 1.37028 7.40124 1.39251 7.34846C1.41473 7.29568 1.45637 7.25345 1.50883 7.23049L2.33231 6.87075C2.33231 6.87075 1.28244 6.01642 1.56854 4.02316C1.57187 3.9997 1.58026 3.97725 1.59311 3.95735C1.60597 3.93745 1.62299 3.92058 1.643 3.90791C1.66301 3.89523 1.68554 3.88704 1.70902 3.88392C1.7325 3.88079 1.75638 3.8828 1.77901 3.88981L2.60299 4.14406C2.60299 4.14406 2.52686 2.38913 3.24983 1.46763C3.28532 1.42273 3.33547 1.39174 3.39151 1.3801C3.44755 1.36846 3.5059 1.3769 3.55633 1.40394C3.96683 1.61989 4.99581 2.20852 5.39436 2.86183C5.69663 3.35722 5.96494 3.87257 6.19744 4.40429L5.04158 10.4657Z" fill="url(#paint3_linear_220_26744)"/>
    <path d="M5.38138 10.2826C5.38138 10.2826 2.44572 9.40038 1.82724 7.65341C1.81108 7.60663 1.81252 7.55556 1.8313 7.50977C1.85007 7.46398 1.88489 7.4266 1.92924 7.40462L2.82487 6.95681C2.82487 6.95681 1.66553 6.06467 1.82575 4.47493C1.82857 4.4512 1.83628 4.42832 1.84839 4.40771C1.86049 4.38711 1.87673 4.36924 1.89608 4.35522C1.91543 4.3412 1.93747 4.33133 1.96082 4.32624C1.98416 4.32116 2.00831 4.32096 2.03174 4.32566L2.9209 4.5013C2.9209 4.5013 2.90746 2.53042 3.3712 1.87711C3.39868 1.83899 3.43928 1.81236 3.4852 1.80235C3.53113 1.79234 3.57913 1.79965 3.61998 1.82288C3.99913 2.03683 5.08732 2.73841 5.58638 3.97736C6.1969 5.48898 6.15112 5.98605 6.15112 5.98605L5.38138 10.2826Z" fill="#FFED48"/>
    <path d="M3.95679 8.55005C3.58507 8.47845 3.23256 8.32945 2.92216 8.11275C2.61176 7.89604 2.35041 7.61647 2.15509 7.29219L1.92919 7.40514C1.88485 7.42711 1.85003 7.46449 1.83125 7.51029C1.81248 7.55608 1.81103 7.60714 1.82719 7.65393C2.25858 8.87496 3.82295 9.67356 4.72604 10.0423C4.79619 9.92882 5.42512 8.83565 3.95679 8.55005ZM3.59556 7.41509L3.67268 6.40303C2.39293 5.76067 2.24167 4.71428 2.22973 4.36299L2.03418 4.32418C2.01075 4.31948 1.9866 4.31968 1.96326 4.32477C1.93991 4.32986 1.91787 4.33972 1.89852 4.35374C1.87917 4.36776 1.86293 4.38564 1.85083 4.40624C1.83872 4.42684 1.83102 4.44973 1.82819 4.47345C1.66797 6.06319 2.82731 6.95534 2.82731 6.95534L2.82183 6.95832C3.06516 7.13403 3.32416 7.28693 3.59556 7.41509Z" fill="#FBD600"/>
    <path d="M10.7933 10.4657C10.7933 10.4657 13.5299 9.92932 14.4455 7.51411C14.4657 7.46054 14.4646 7.40124 14.4424 7.34846C14.4202 7.29568 14.3785 7.25345 14.3261 7.23049L13.5026 6.87075C13.5026 6.87075 14.5525 6.01642 14.2663 4.02316C14.263 3.9997 14.2546 3.97725 14.2418 3.95735C14.2289 3.93745 14.2119 3.92058 14.1919 3.90791C14.1719 3.89523 14.1494 3.88704 14.1259 3.88392C14.1024 3.88079 14.0785 3.8828 14.0559 3.88981L13.2319 4.14406C13.2319 4.14406 13.308 2.38913 12.5851 1.46763C12.5496 1.42273 12.4994 1.39174 12.4434 1.3801C12.3873 1.36846 12.329 1.3769 12.2786 1.40394C11.8681 1.61989 10.8391 2.20852 10.4405 2.86183C10.1383 3.35722 9.86995 3.87257 9.63745 4.40429L10.7933 10.4657Z" fill="url(#paint4_linear_220_26744)"/>
    <path d="M10.4536 10.2826C10.4536 10.2826 13.3893 9.40038 14.0078 7.65341C14.0241 7.60692 14.023 7.55608 14.0047 7.51033C13.9864 7.46457 13.9521 7.42701 13.9082 7.40462L13.0126 6.95681C13.0126 6.95681 14.172 6.06467 14.0117 4.47493C14.0089 4.4512 14.0012 4.42832 13.9891 4.40771C13.977 4.38711 13.9608 4.36924 13.9414 4.35522C13.9221 4.3412 13.9 4.33133 13.8767 4.32624C13.8533 4.32116 13.8292 4.32096 13.8057 4.32566L12.9166 4.5013C12.9166 4.5013 12.93 2.53042 12.4688 1.87711C12.4413 1.83899 12.4007 1.81236 12.3548 1.80235C12.3088 1.79234 12.2608 1.79965 12.22 1.82288C11.8408 2.03683 10.7527 2.73841 10.2536 3.97736C9.6381 5.48898 9.68387 5.98605 9.68387 5.98605L10.4536 10.2826Z" fill="#FFED48"/>
    <path d="M11.8782 8.55005C12.2499 8.47845 12.6024 8.32945 12.9128 8.11275C13.2232 7.89604 13.4846 7.61647 13.6799 7.29219L13.9058 7.40514C13.9497 7.42753 13.984 7.46509 14.0023 7.51084C14.0206 7.5566 14.0216 7.60744 14.0053 7.65393C13.5739 8.87496 12.0095 9.67356 11.1065 10.0423C11.0388 9.92882 10.4099 8.83565 11.8782 8.55005ZM12.2394 7.41509L12.1623 6.40303C13.442 5.76067 13.5933 4.71428 13.6053 4.36299L13.8008 4.32418C13.8242 4.31948 13.8484 4.31968 13.8717 4.32477C13.8951 4.32986 13.9171 4.33972 13.9365 4.35374C13.9558 4.36776 13.972 4.38564 13.9841 4.40624C13.9963 4.42684 14.004 4.44973 14.0068 4.47345C14.167 6.06319 13.0077 6.95534 13.0077 6.95534L13.0131 6.95832C12.7698 7.13403 12.5108 7.28693 12.2394 7.41509Z" fill="#FBD600"/>
    <path d="M7.92527 11.6932C10.5029 11.6932 12.5925 9.6036 12.5925 7.02598C12.5925 4.44835 10.5029 2.35876 7.92527 2.35876C5.34764 2.35876 3.25806 4.44835 3.25806 7.02598C3.25806 9.6036 5.34764 11.6932 7.92527 11.6932Z" fill="url(#paint5_linear_220_26744)"/>
    <path d="M7.92542 11.4793C10.3849 11.4793 12.3787 9.48547 12.3787 7.02601C12.3787 4.56654 10.3849 2.57275 7.92542 2.57275C5.46596 2.57275 3.47217 4.56654 3.47217 7.02601C3.47217 9.48547 5.46596 11.4793 7.92542 11.4793Z" fill="url(#paint6_linear_220_26744)"/>
    <path opacity="0.5" d="M7.92542 9.81036C6.88908 9.81025 5.88519 9.44881 5.08662 8.78828C4.28804 8.12775 3.74475 7.20947 3.55029 6.19153C3.42811 6.83522 3.44946 7.49794 3.61284 8.13242C3.77621 8.76691 4.07757 9.35753 4.49543 9.86217C4.91329 10.3668 5.43735 10.773 6.03024 11.0518C6.62313 11.3307 7.27024 11.4752 7.92542 11.4752C8.58061 11.4752 9.22772 11.3307 9.82061 11.0518C10.4135 10.773 10.9376 10.3668 11.3554 9.86217C11.7733 9.35753 12.0746 8.76691 12.238 8.13242C12.4014 7.49794 12.4227 6.83522 12.3006 6.19153C12.1061 7.20947 11.5628 8.12775 10.7642 8.78828C9.96565 9.44881 8.96177 9.81025 7.92542 9.81036Z" fill="url(#paint7_linear_220_26744)"/>
    <path d="M7.92555 10.8319C10.0278 10.8319 11.732 9.12775 11.732 7.02553C11.732 4.92331 10.0278 3.21912 7.92555 3.21912C5.82333 3.21912 4.11914 4.92331 4.11914 7.02553C4.11914 9.12775 5.82333 10.8319 7.92555 10.8319Z" fill="url(#paint8_linear_220_26744)"/>
    <path d="M7.92546 10.5398C9.86611 10.5398 11.4393 8.96657 11.4393 7.02593C11.4393 5.08529 9.86611 3.51208 7.92546 3.51208C5.98482 3.51208 4.41162 5.08529 4.41162 7.02593C4.41162 8.96657 5.98482 10.5398 7.92546 10.5398Z" fill="url(#paint9_linear_220_26744)"/>
    <path opacity="0.2" d="M7.92546 5.68305C8.6677 5.68308 9.39087 5.91807 9.99134 6.35434C10.5918 6.79062 11.0388 7.40579 11.2681 8.11169C11.439 7.5844 11.4828 7.02415 11.3957 6.47673C11.3087 5.9293 11.0934 5.41023 10.7674 4.96192C10.4415 4.5136 10.0141 4.14877 9.52013 3.89721C9.0262 3.64566 8.47976 3.51453 7.92546 3.51453C7.37117 3.51453 6.82473 3.64566 6.3308 3.89721C5.83687 4.14877 5.40946 4.5136 5.08348 4.96192C4.75751 5.41023 4.54221 5.9293 4.45519 6.47673C4.36817 7.02415 4.41189 7.5844 4.58279 8.11169C4.81216 7.40579 5.25911 6.79062 5.85958 6.35434C6.46006 5.91807 7.18323 5.68308 7.92546 5.68305Z" fill="#E48200"/>
    <path d="M7.92555 3.25445C8.93095 3.25048 9.89676 3.646 10.6106 4.35403C11.3244 5.06206 11.7278 6.02462 11.732 7.03001V7.01708C11.732 4.91484 10.0278 3.19275 7.92555 3.19275C5.82332 3.19275 4.11914 4.91484 4.11914 7.01708V7.03051C4.12322 6.02503 4.52653 5.06235 5.24036 4.35421C5.95419 3.64607 6.92007 3.25048 7.92555 3.25445Z" fill="#F3AE00"/>
    <path d="M7.9253 10.6587C5.84595 10.6587 4.1562 9.02718 4.11938 6.95679C4.11938 6.97968 4.11938 7.00256 4.11938 7.02545C4.11938 7.52532 4.21784 8.02029 4.40913 8.4821C4.60042 8.94392 4.8808 9.36354 5.23426 9.71699C5.58772 10.0705 6.00733 10.3508 6.46915 10.5421C6.93096 10.7334 7.42593 10.8319 7.9258 10.8319C8.42566 10.8319 8.92063 10.7334 9.38245 10.5421C9.84427 10.3508 10.2639 10.0705 10.6173 9.71699C10.9708 9.36354 11.2512 8.94392 11.4425 8.4821C11.6338 8.02029 11.7322 7.52532 11.7322 7.02545C11.7322 7.00256 11.7322 6.97968 11.7322 6.95679C11.6944 9.02718 10.0046 10.6587 7.9253 10.6587Z" fill="#FBD600"/>
    <path d="M7.92555 10.8056C8.93095 10.8096 9.89676 10.414 10.6106 9.70601C11.3244 8.99798 11.7278 8.03542 11.732 7.03003V7.04346C11.732 9.1457 10.0278 10.8748 7.92555 10.8748C5.82332 10.8748 4.11914 9.14371 4.11914 7.04346V7.03003C4.12335 8.03542 4.52672 8.99798 5.24054 9.70601C5.95435 10.414 6.92016 10.8096 7.92555 10.8056Z" fill="white"/>
    <path opacity="0.5" d="M4.04052 5.38446C4.05594 5.3347 4.07336 5.28494 4.09028 5.23767C4.10719 5.1904 4.12759 5.14114 4.1475 5.09288C4.1674 5.04462 4.18929 4.99784 4.21118 4.95058C4.23308 4.90331 4.25696 4.85703 4.28134 4.81126C4.37923 4.62623 4.49205 4.4495 4.61869 4.28284C4.65054 4.24104 4.68338 4.20024 4.71821 4.15944C4.75304 4.11864 4.78588 4.07933 4.82071 4.04002C4.85554 4.00071 4.89186 3.9624 4.92868 3.92458C4.9655 3.88677 5.00232 3.84995 5.04063 3.81363C5.11726 3.74098 5.19637 3.67082 5.27847 3.60465C5.36057 3.53847 5.44466 3.47428 5.53273 3.41557C5.6208 3.35686 5.71136 3.30262 5.80441 3.25286C5.85118 3.22799 5.89845 3.20311 5.94621 3.18221C5.99398 3.16131 6.04224 3.13793 6.09101 3.11802C6.28523 3.03806 6.48473 2.97156 6.68809 2.919C6.89046 2.86658 7.09657 2.82981 7.30458 2.80903C7.40808 2.79908 7.51207 2.79311 7.61556 2.79062C7.71906 2.78813 7.82305 2.79062 7.92605 2.79709C7.94968 2.79875 7.9717 2.80966 7.98735 2.82745C8.003 2.84524 8.01101 2.86847 8.00964 2.89213C8.00823 2.9137 7.99903 2.93403 7.98374 2.94932C7.96845 2.96461 7.94812 2.97382 7.92654 2.97522C7.87712 2.97854 7.82736 2.98252 7.77727 2.98716C7.72752 2.99214 7.67776 2.99711 7.628 3.00408C7.52849 3.01652 7.43295 3.03194 7.33692 3.05085C7.14492 3.08882 6.95573 3.13986 6.77069 3.20361C6.5871 3.26762 6.40891 3.34615 6.23779 3.43846C6.195 3.46085 6.1532 3.48473 6.11091 3.50812C6.06862 3.5315 6.02732 3.55788 5.98602 3.58126C5.90292 3.63102 5.82132 3.68078 5.74072 3.73501C5.66011 3.78925 5.5805 3.84199 5.50288 3.89971C5.46407 3.92807 5.42575 3.95742 5.38794 3.98728C5.35012 4.01713 5.31231 4.04798 5.27549 4.07933C5.20185 4.14153 5.1297 4.20621 5.06004 4.27388C4.99038 4.34155 4.92221 4.41071 4.85653 4.48286C4.725 4.62746 4.60269 4.78018 4.49032 4.94013C4.43426 5.02073 4.38019 5.10366 4.32811 5.18891C4.27836 5.273 4.2286 5.35908 4.17884 5.44665C4.17012 5.46408 4.15509 5.47753 4.1368 5.48427C4.11851 5.491 4.09835 5.49052 4.0804 5.48291C4.06246 5.4753 4.04809 5.46114 4.04022 5.44331C4.03235 5.42549 4.03157 5.40533 4.03803 5.38694L4.04052 5.38446Z" fill="white"/>
    <path opacity="0.3" d="M10.7875 10.1144C10.7751 10.1384 10.7613 10.1617 10.7462 10.1841C10.7387 10.1955 10.7307 10.206 10.7233 10.2174L10.6994 10.2493L10.674 10.2806C10.6656 10.291 10.6566 10.301 10.6482 10.3109L10.6213 10.3408L10.5934 10.3697C10.5184 10.4453 10.4358 10.5132 10.3471 10.5722C10.2584 10.631 10.164 10.681 10.0655 10.7214C10.0406 10.7314 10.0157 10.7409 9.99036 10.7493C9.97743 10.7533 9.96499 10.7578 9.95205 10.7613L9.91374 10.7727L9.87493 10.7826L9.83512 10.7911C9.80875 10.7961 9.78238 10.8001 9.75501 10.8025C9.7403 10.8037 9.72559 10.8003 9.71292 10.7927C9.70025 10.7852 9.69024 10.7738 9.68428 10.7603C9.67832 10.7468 9.67671 10.7318 9.67966 10.7174C9.68262 10.7029 9.69 10.6897 9.70078 10.6796L9.73063 10.6543L9.76049 10.6304C9.78039 10.6145 9.80029 10.599 9.82069 10.5841L9.8804 10.5398L9.94061 10.496C10.0207 10.4393 10.1008 10.3841 10.1809 10.3294C10.261 10.2746 10.3412 10.2204 10.4232 10.1667L10.4854 10.1264L10.5486 10.087C10.57 10.0741 10.5914 10.0607 10.6138 10.0482C10.6243 10.0418 10.6357 10.0353 10.6472 10.0293C10.6586 10.0234 10.6695 10.0169 10.6815 10.0114C10.7 10.0025 10.7213 10.0014 10.7408 10.0082C10.7602 10.015 10.7761 10.0292 10.785 10.0477C10.7903 10.058 10.7932 10.0693 10.7937 10.0808C10.7941 10.0923 10.792 10.1038 10.7875 10.1144Z" fill="white"/>
    <path d="M7.92346 12.7923C7.90566 12.7923 7.88807 12.7885 7.87191 12.781C7.85576 12.7735 7.84143 12.7626 7.82992 12.749L6.41334 11.0608C6.39458 11.0389 6.38434 11.011 6.38448 10.9822C6.38048 10.8856 6.38148 10.789 6.38746 10.6926L6.98455 9.87656C6.99549 9.8571 7.01148 9.84095 7.03083 9.82983C7.05019 9.81871 7.07219 9.81302 7.09451 9.81337H8.76137C8.78298 9.81361 8.80413 9.81959 8.82267 9.83069C8.8412 9.84179 8.85645 9.85763 8.86686 9.87656L9.46494 10.6791C9.47887 10.6906 9.47091 10.8911 9.46892 10.9095C9.47243 10.9515 9.46559 10.9937 9.44902 11.0324C9.43941 11.0483 9.42859 11.0634 9.41667 11.0777L8.0185 12.7475C8.00097 12.7692 7.97656 12.7841 7.94934 12.7898C7.94084 12.7917 7.93216 12.7925 7.92346 12.7923Z" fill="#E48200"/>
    <path d="M7.92302 12.5515C7.90518 12.5515 7.88757 12.5475 7.87141 12.54C7.85525 12.5324 7.84094 12.5214 7.82948 12.5077L6.4124 10.8195C6.39398 10.7974 6.38393 10.7696 6.38404 10.7409C6.38384 10.7199 6.38916 10.6993 6.39946 10.6811L6.98212 9.63624C6.99287 9.61677 7.00876 9.60062 7.02807 9.58956C7.04737 9.57851 7.06934 9.57297 7.09158 9.57355H8.748C8.75147 9.5733 8.75497 9.5733 8.75844 9.57355C8.7801 9.5736 8.80134 9.57944 8.81997 9.59046C8.83861 9.60149 8.85396 9.61729 8.86443 9.63624L9.42867 10.6269C9.46052 10.6866 9.49236 10.7593 9.45156 10.805C9.43116 10.8304 8.01806 12.5072 8.01806 12.5072C8.00059 12.5289 7.97615 12.5438 7.9489 12.5495C7.94037 12.5511 7.9317 12.5518 7.92302 12.5515Z" fill="url(#paint10_linear_220_26744)"/>
    <path d="M7.90853 11.9037C7.89723 11.9039 7.88605 11.9015 7.87579 11.8968C7.86554 11.892 7.85649 11.885 7.84931 11.8763L6.95369 10.8095C6.94366 10.7975 6.93753 10.7826 6.93611 10.767C6.93469 10.7514 6.93804 10.7357 6.94573 10.722L7.31393 10.0612C7.32069 10.0488 7.33072 10.0386 7.34292 10.0316C7.35512 10.0246 7.36902 10.021 7.38309 10.0214H8.43645C8.45011 10.0214 8.46351 10.0251 8.47524 10.0321C8.48697 10.0392 8.4966 10.0492 8.50312 10.0612L8.8554 10.6931C8.86895 10.7118 8.87595 10.7344 8.87532 10.7574C8.87469 10.7804 8.86647 10.8026 8.85192 10.8205L7.96823 11.8753C7.95719 11.8891 7.94172 11.8986 7.92445 11.9022C7.9192 11.9032 7.91387 11.9037 7.90853 11.9037ZM7.10644 10.7488L7.90853 11.7042L8.70961 10.7488L8.39017 10.1766H7.92445C7.91784 10.1774 7.91116 10.1774 7.90454 10.1766H7.89211H7.42688L7.10644 10.7488Z" fill="white"/>
    <path d="M7.58415 10.7598H7.01294L7.38164 10.099L7.53141 10.3946L7.58415 10.7598Z" fill="#2E3E70"/>
    <path d="M8.23291 10.7598H8.80362L8.43542 10.099L8.26575 10.3861L8.23291 10.7598Z" fill="#2E3E70"/>
    <path d="M7.5846 10.7598L7.81 10.4239L7.90852 10.099H7.38159L7.5846 10.7598Z" fill="url(#paint11_linear_220_26744)"/>
    <path d="M8.23261 10.7598L7.99228 10.4533L7.90869 10.099H8.43512L8.23261 10.7598Z" fill="url(#paint12_linear_220_26744)"/>
    <path d="M8.23255 10.7598L7.90864 10.099V10.1005V10.099L7.58472 10.7598H7.87978H8.23255Z" fill="#01FE86"/>
    <path d="M8.23609 10.7533L8.80382 10.7593L7.90869 11.8266L7.97288 11.1399L8.23609 10.7533Z" fill="#1A2277"/>
    <path d="M7.58415 10.7598H7.01294L7.90857 11.8266L7.89264 11.7634L7.58415 10.7598Z" fill="#1A2277"/>
    <path d="M8.23255 10.7598L7.90864 11.8266L7.58472 10.7598H7.87978H8.23255Z" fill="url(#paint13_linear_220_26744)"/>
    <path opacity="0.5" d="M6.30347 8.70881C6.30702 8.59187 6.33181 8.47655 6.37661 8.36848C6.41927 8.25165 6.48153 8.14295 6.56071 8.04704C6.65728 7.93971 6.77616 7.8548 6.90901 7.79826C7.03966 7.7373 7.18097 7.70248 7.32498 7.69576C7.34787 7.49026 7.38071 7.21959 7.42449 6.88671C7.45037 6.67972 7.47342 6.4928 7.49366 6.32595C7.39779 6.37291 7.29329 6.39967 7.18665 6.40456C7.05082 6.40456 6.79954 6.34834 6.64231 5.97019C6.56903 5.80767 6.52829 5.63238 6.5224 5.4542V5.18203L6.7876 5.12233C6.96623 5.08202 7.22994 5.0054 7.57177 4.89494C7.88683 4.79302 8.19497 4.67087 8.49427 4.52922L8.9804 4.29785V4.83622C8.9804 5.04072 8.93561 5.50048 8.83859 6.28316C8.77191 6.82551 8.72315 7.29372 8.6938 7.68133C8.80898 7.66341 8.92158 7.63167 9.02916 7.58679L9.5317 7.36786L9.50483 7.91519C9.48692 8.27493 9.42423 8.52521 9.30581 8.70185C9.20629 8.8546 8.99881 9.03622 8.5913 9.03622C8.5296 9.03622 8.41416 9.02975 8.06586 8.97651C7.83526 8.94228 7.60239 8.92565 7.36926 8.92675C7.16153 8.92547 6.95515 8.96015 6.75924 9.02925L6.30396 9.19345L6.30347 8.70881Z" fill="#E48200"/>
    <path d="M6.57886 8.70872C6.58259 8.62529 6.6013 8.54322 6.63409 8.46641C6.66564 8.37892 6.71192 8.29747 6.77092 8.22558C6.84114 8.14879 6.92722 8.08818 7.02319 8.04795C7.13479 7.99613 7.25641 7.96946 7.37945 7.96983C7.45707 7.96983 7.52076 7.96983 7.57002 7.96983C7.59042 7.76135 7.63172 7.40857 7.69292 6.91847C7.75014 6.45971 7.79243 6.09897 7.82328 5.84322C7.37547 6.09548 7.24262 6.12633 7.18142 6.12633C7.062 6.12633 6.96497 6.03727 6.89183 5.86163C6.83239 5.73271 6.79859 5.59345 6.79231 5.45163V5.40187L6.84207 5.39092C7.02916 5.34863 7.30083 5.26952 7.65013 5.15657C7.97881 5.05149 8.30027 4.925 8.61243 4.77792L8.70448 4.73413V4.83364C8.70448 5.02372 8.6587 5.48596 8.56466 6.24675C8.47709 6.95529 8.42086 7.54043 8.39748 7.98476C8.65165 7.98073 8.90293 7.93013 9.13886 7.83549L9.23389 7.79419L9.22892 7.89768C9.21399 8.2017 9.16423 8.41367 9.07666 8.54453C8.98362 8.68484 8.82091 8.7555 8.59203 8.7555C8.42984 8.74609 8.26835 8.72715 8.10839 8.69877C7.86353 8.66149 7.61619 8.64286 7.3685 8.64304C7.12884 8.64188 6.89079 8.68228 6.66494 8.76246L6.57886 8.79331V8.70872Z" fill="#FBD600"/>
    <path d="M6.82044 8.26544C6.88467 8.19602 6.96306 8.14121 7.05031 8.10472C7.15344 8.05664 7.26593 8.032 7.37971 8.03257C7.49564 8.03257 7.57873 8.03257 7.62849 8.03755C7.6464 7.84151 7.68919 7.47131 7.75686 6.92697C7.82453 6.38263 7.8728 5.98142 7.90166 5.72335C7.51256 5.94825 7.27256 6.0607 7.18167 6.0607C7.09062 6.0607 7.01399 5.98607 6.9513 5.8358C6.89543 5.71471 6.86366 5.58391 6.85775 5.45068C7.04683 5.40789 7.31801 5.32927 7.67128 5.21483C8.00181 5.10993 8.3251 4.98344 8.63906 4.83618C8.63906 5.02227 8.59262 5.49082 8.49974 6.24182C8.40686 6.99282 8.3498 7.59687 8.32857 8.05397C8.66393 8.04667 8.94224 7.99492 9.1635 7.89873C9.1489 8.18798 9.10163 8.39315 9.02169 8.51422C8.94175 8.6353 8.79811 8.696 8.59079 8.69633C8.43196 8.68659 8.27381 8.66782 8.11711 8.64011C7.86897 8.6022 7.61828 8.5834 7.36727 8.58388C7.12069 8.58319 6.87587 8.62545 6.6438 8.70877C6.6473 8.63327 6.66415 8.55898 6.69356 8.48934C6.72257 8.40792 6.7655 8.33216 6.82044 8.26544Z" fill="#E48200"/>
    <g opacity="0.5">
      <path d="M7.18165 6.06221C7.19762 6.06168 7.21348 6.05934 7.22892 6.05525C7.15727 6.03435 7.09508 5.9622 7.04333 5.83731C6.98746 5.71622 6.95569 5.58542 6.94979 5.45219C7.13886 5.4094 7.41004 5.33079 7.76331 5.21634C8.0615 5.12034 8.35389 5.00721 8.63904 4.8775C8.63904 4.86207 8.63904 4.84814 8.63904 4.83521C8.32463 4.98304 8.00085 5.11002 7.66977 5.21535C7.3165 5.32979 7.04532 5.40841 6.85624 5.4512C6.86215 5.58442 6.89392 5.71523 6.94979 5.83632C7.01397 5.98758 7.0906 6.06221 7.18165 6.06221ZM7.8489 6.92699C7.91524 6.38265 7.9635 5.98194 7.99369 5.72486L7.89417 5.78109C7.86532 6.03883 7.81904 6.41947 7.75585 6.9255C7.68951 7.46652 7.64688 7.83556 7.62797 8.03259C7.66529 8.03259 7.69614 8.03259 7.71953 8.03608C7.7381 7.84103 7.78123 7.47133 7.8489 6.92699ZM8.4216 8.05399C8.67326 8.05387 8.92332 8.0139 9.16248 7.93557C9.16248 7.92313 9.16248 7.91119 9.16248 7.89875C8.9258 7.99259 8.67417 8.04315 8.41961 8.04802C8.41961 8.04802 8.4216 8.0525 8.4216 8.05399ZM8.21013 8.64013C7.96216 8.6022 7.71164 8.5834 7.46079 8.5839H7.43243C7.66215 8.58638 7.89142 8.60483 8.11858 8.63913C8.27528 8.66684 8.43343 8.68561 8.59227 8.69536C8.60869 8.69536 8.62411 8.69536 8.63953 8.69536C8.55594 8.68889 8.41364 8.67098 8.21013 8.64013ZM6.78609 8.48737C6.81537 8.40689 6.85792 8.33188 6.91197 8.26546C6.9765 8.19616 7.05503 8.14137 7.14235 8.10474C7.24315 8.05762 7.353 8.033 7.46427 8.03259H7.37969C7.26591 8.03202 7.15342 8.05666 7.0503 8.10474C6.96304 8.14123 6.88465 8.19604 6.82042 8.26546C6.76603 8.33165 6.72345 8.40672 6.69453 8.48737C6.66513 8.55701 6.64828 8.6313 6.64478 8.7068C6.67562 8.69585 6.70697 8.6874 6.73832 8.67794C6.74562 8.61256 6.76169 8.54847 6.78609 8.48737Z" fill="black"/>
    </g>
  </g>
  <defs>
    <linearGradient id="paint0_linear_220_26744" x1="5.07636" y1="12.5192" x2="5.07636" y2="8.34461" gradientUnits="userSpaceOnUse">
      <stop offset="0.01" stop-color="#FFED48"/>
      <stop offset="1" stop-color="#E89000"/>
    </linearGradient>
    <linearGradient id="paint1_linear_220_26744" x1="7.92545" y1="14.0427" x2="7.92545" y2="9.70044" gradientUnits="userSpaceOnUse">
      <stop offset="0.01" stop-color="#FFED48"/>
      <stop offset="1" stop-color="#E89000"/>
    </linearGradient>
    <linearGradient id="paint2_linear_220_26744" x1="10.7746" y1="12.5192" x2="10.7746" y2="8.3446" gradientUnits="userSpaceOnUse">
      <stop offset="0.01" stop-color="#FFED48"/>
      <stop offset="1" stop-color="#E89000"/>
    </linearGradient>
    <linearGradient id="paint3_linear_220_26744" x1="3.78522" y1="10.4657" x2="3.78522" y2="1.37509" gradientUnits="userSpaceOnUse">
      <stop stop-color="#E89000"/>
      <stop offset="0.99" stop-color="#FFED48"/>
    </linearGradient>
    <linearGradient id="paint4_linear_220_26744" x1="12.0492" y1="10.4657" x2="12.0492" y2="1.37509" gradientUnits="userSpaceOnUse">
      <stop stop-color="#E89000"/>
      <stop offset="0.99" stop-color="#FFED48"/>
    </linearGradient>
    <linearGradient id="paint5_linear_220_26744" x1="7.92527" y1="11.6932" x2="7.92527" y2="2.35827" gradientUnits="userSpaceOnUse">
      <stop stop-color="#E48200"/>
      <stop offset="1" stop-color="#FDE833"/>
    </linearGradient>
    <linearGradient id="paint6_linear_220_26744" x1="7.92542" y1="11.4788" x2="7.92542" y2="2.57275" gradientUnits="userSpaceOnUse">
      <stop stop-color="#FBD600"/>
      <stop offset="1" stop-color="#FEF15A"/>
    </linearGradient>
    <linearGradient id="paint7_linear_220_26744" x1="7.92542" y1="11.4787" x2="7.92542" y2="6.19153" gradientUnits="userSpaceOnUse">
      <stop stop-color="#FBD600"/>
      <stop offset="1" stop-color="#FEF15A"/>
    </linearGradient>
    <linearGradient id="paint8_linear_220_26744" x1="7.92555" y1="10.8324" x2="7.92555" y2="3.21912" gradientUnits="userSpaceOnUse">
      <stop offset="0.01" stop-color="#FFED48"/>
      <stop offset="1" stop-color="#F3AE00"/>
    </linearGradient>
    <linearGradient id="paint9_linear_220_26744" x1="7.92546" y1="10.5393" x2="7.92546" y2="3.51208" gradientUnits="userSpaceOnUse">
      <stop stop-color="#E89000"/>
      <stop offset="0.99" stop-color="#FFED48"/>
    </linearGradient>
    <linearGradient id="paint10_linear_220_26744" x1="7.9275" y1="9.40288" x2="7.9275" y2="14.1781" gradientUnits="userSpaceOnUse">
      <stop offset="0.01" stop-color="#FFED48"/>
      <stop offset="1" stop-color="#E89000"/>
    </linearGradient>
    <linearGradient id="paint11_linear_220_26744" x1="8.10755" y1="10.3985" x2="7.34378" y2="10.4364" gradientUnits="userSpaceOnUse">
      <stop stop-color="#0C60E7"/>
      <stop offset="0.07" stop-color="#0E5EDF"/>
      <stop offset="1" stop-color="#2E3E70"/>
    </linearGradient>
    <linearGradient id="paint12_linear_220_26744" x1="7.90869" y1="10.4294" x2="8.43512" y2="10.4294" gradientUnits="userSpaceOnUse">
      <stop stop-color="#0C60E7"/>
      <stop offset="1" stop-color="#2E3E70"/>
    </linearGradient>
    <linearGradient id="paint13_linear_220_26744" x1="7.90864" y1="10.4672" x2="7.90864" y2="11.3872" gradientUnits="userSpaceOnUse">
      <stop stop-color="#0C60E7"/>
      <stop offset="1" stop-color="#2E3E70"/>
    </linearGradient>
    <clipPath id="clip0_220_26744">
      <rect width="14" height="14" fill="white" transform="translate(0.5 0.5)"/>
    </clipPath>
  </defs>
</svg>