<svg xmlns="http://www.w3.org/2000/svg" width="24" height="24" fill="none"><path fill="#787878" d="M23.413 11.707V11.858c-.082 6.396-5.291 11.556-11.706 11.556-.72 0-1.422-.065-2.105-.189a11.589 11.589 0 0 1-3.026-.992 11.758 11.758 0 0 1-4.651-4.093A11.628 11.628 0 0 1 0 11.858v-.068L0 11.707C0 5.242 5.24 0 11.706 0c1.27 0 2.493.203 3.64.577a11.7 11.7 0 0 1 4.117 2.362 11.715 11.715 0 0 1 3.422 5.278 11.645 11.645 0 0 1 .528 3.49Z"/><path fill="#474747" d="M23.413 12.293C23.413 18.76 18.172 24 11.706 24 5.24 24 0 18.759 0 12.293 0 5.827 5.241.586 11.706.586s11.707 5.242 11.707 11.707Z"/><path fill="url(#a)" d="M23.413 11.941c0 6.465-5.24 11.706-11.706 11.706a11.607 11.607 0 0 1-5.303-1.267 11.757 11.757 0 0 1-4.576-4.156 11.633 11.633 0 0 1-1.827-6.366v-.068C.082 5.393 5.29.234 11.706.234c1.198 0 2.354.18 3.441.514a11.687 11.687 0 0 1 4.182 2.308 11.721 11.721 0 0 1 3.496 5.211 11.687 11.687 0 0 1 .588 3.523V11.94Z"/><path fill="url(#b)" d="M22.53 11.965c0 5.981-4.85 10.832-10.832 10.832-5.982 0-10.831-4.85-10.831-10.832 0-5.982 4.85-10.832 10.831-10.832 5.982 0 10.832 4.85 10.832 10.832Z"/><path fill="url(#c)" d="M22.317 11.957c0 5.852-4.744 10.594-10.595 10.594-5.851 0-10.595-4.743-10.595-10.594 0-5.852 4.744-10.594 10.595-10.594 5.851 0 10.595 4.742 10.595 10.594Z"/><path fill="#474747" d="M12.12 2.244a.31.31 0 1 1-.62 0 .31.31 0 0 1 .62 0Z"/><path fill="#E6E7E8" d="M12.15 2.165a.31.31 0 1 1-.619 0 .31.31 0 0 1 .62 0Z"/><path fill="#898989" d="M12.136 2.204a.31.31 0 1 1-.62 0 .31.31 0 0 1 .62 0Z"/><path fill="#474747" d="M10.588 2.3a.31.31 0 1 1-.612.097.31.31 0 0 1 .612-.098Z"/><path fill="#E6E7E8" d="M10.607 2.216a.31.31 0 1 1-.612.098.31.31 0 0 1 .612-.098Z"/><path fill="#898989" d="M10.598 2.258a.31.31 0 1 1-.613.097.31.31 0 0 1 .613-.097Z"/><path fill="#474747" d="M9.084 2.594a.31.31 0 1 1-.589.192.31.31 0 0 1 .59-.192Z"/><path fill="#E6E7E8" d="M9.09 2.508a.31.31 0 1 1-.59.191.31.31 0 0 1 .59-.19Z"/><path fill="#898989" d="M9.087 2.552a.31.31 0 1 1-.589.192.31.31 0 0 1 .59-.192Z"/><path fill="#474747" d="M7.646 3.12a.31.31 0 1 1-.417-.136.31.31 0 0 1 .417.136Z"/><path fill="#E6E7E8" d="M7.638 3.034a.31.31 0 1 1-.554.282.31.31 0 0 1 .554-.282Z"/><path fill="#898989" d="M7.642 3.077a.31.31 0 1 1-.555.282.31.31 0 0 1 .555-.282Z"/><path fill="#474747" d="M6.306 3.865a.31.31 0 1 1-.503.364.31.31 0 0 1 .503-.364Z"/><path fill="#E6E7E8" d="M6.285 3.782a.31.31 0 1 1-.502.364.31.31 0 0 1 .502-.364Z"/><path fill="#898989" d="M6.296 3.823a.31.31 0 1 1-.502.365.31.31 0 0 1 .502-.365Z"/><path fill="#474747" d="M5.1 4.81a.31.31 0 1 1-.439.438.31.31 0 0 1 .44-.439Z"/><path fill="#E6E7E8" d="M5.067 4.73a.31.31 0 1 1-.44.44.31.31 0 0 1 .44-.44Z"/><path fill="#898989" d="M5.083 4.77a.31.31 0 1 1-.439.44.31.31 0 0 1 .44-.44Z"/><path fill="#474747" d="M4.057 5.931a.31.31 0 1 1-.366.502.31.31 0 0 1 .366-.502Z"/><path fill="#E6E7E8" d="M4.01 5.859a.31.31 0 1 1-.364.502.31.31 0 0 1 .365-.502Z"/><path fill="#898989" d="M4.034 5.895a.31.31 0 1 1-.365.502.31.31 0 0 1 .365-.502Z"/><path fill="#474747" d="M3.201 7.202a.31.31 0 1 1-.282.554.31.31 0 0 1 .282-.554Z"/><path fill="#E6E7E8" d="M3.145 7.138a.31.31 0 1 1-.283.554.31.31 0 0 1 .283-.554Z"/><path fill="#898989" d="M3.173 7.17a.31.31 0 1 1-.282.554.31.31 0 0 1 .282-.554Z"/><path fill="#474747" d="M2.555 8.592a.31.31 0 1 1-.191.59.31.31 0 1 1 .191-.59Z"/><path fill="#E6E7E8" d="M2.49 8.537a.31.31 0 1 1-.192.59.31.31 0 1 1 .192-.59Z"/><path fill="#898989" d="M2.523 8.565a.31.31 0 1 1-.192.59.31.31 0 1 1 .191-.59Z"/><path fill="#474747" d="M2.135 10.065a.31.31 0 1 1-.097.612.31.31 0 0 1 .097-.612Z"/><path fill="#E6E7E8" d="M2.062 10.022a.31.31 0 1 1-.099.61.31.31 0 0 1 .099-.61Z"/><path fill="#898989" d="M2.098 10.043a.31.31 0 1 1-.097.613.31.31 0 0 1 .097-.613Z"/><path fill="#474747" d="M1.95 11.586a.31.31 0 1 1 .001.62.31.31 0 0 1 0-.62Z"/><path fill="#E6E7E8" d="M1.87 11.555a.31.31 0 1 1 .001.62.31.31 0 0 1 0-.62Z"/><path fill="#898989" d="M1.91 11.57a.31.31 0 1 1 0 .62.31.31 0 0 1 0-.62Z"/><path fill="#474747" d="M2.006 13.117a.31.31 0 1 1 .097.611.31.31 0 0 1-.097-.61Z"/><path fill="#E6E7E8" d="M1.923 13.1a.31.31 0 1 1 .097.612.31.31 0 0 1-.097-.613Z"/><path fill="#898989" d="M1.964 13.108a.31.31 0 1 1 .098.613.31.31 0 0 1-.098-.613Z"/><path fill="#474747" d="M2.3 14.622a.31.31 0 0 1 .391.198.31.31 0 1 1-.39-.199Z"/><path fill="#E6E7E8" d="M2.215 14.616a.31.31 0 1 1 .191.59.31.31 0 1 1-.192-.59Z"/><path fill="#898989" d="M2.258 14.619a.31.31 0 1 1 .192.59.31.31 0 0 1-.192-.59Z"/><path fill="#474747" d="M2.826 16.06a.311.311 0 0 1 .282.553.31.31 0 1 1-.281-.553h-.001Z"/><path fill="#E6E7E8" d="M2.74 16.069a.31.31 0 1 1 .282.553.31.31 0 0 1-.281-.553Z"/><path fill="#898989" d="M2.783 16.064a.31.31 0 1 1 .282.553.31.31 0 0 1-.282-.553Z"/><path fill="#474747" d="M3.57 17.4a.31.31 0 1 1 .365.502.31.31 0 0 1-.364-.503Z"/><path fill="#E6E7E8" d="M3.488 17.42a.31.31 0 1 1 .364.503.31.31 0 0 1-.364-.502Z"/><path fill="#898989" d="M3.529 17.41a.31.31 0 1 1-.069.433.31.31 0 0 1 .069-.434v.001Z"/><path fill="#474747" d="M4.515 18.606a.31.31 0 1 1 .439.439.31.31 0 0 1-.439-.44Z"/><path fill="#E6E7E8" d="M4.437 18.64a.31.31 0 1 1 .438.44.31.31 0 0 1-.438-.44Z"/><path fill="#898989" d="M4.476 18.623a.31.31 0 1 1 0 .438.31.31 0 0 1 0-.44v.002Z"/><path fill="#474747" d="M5.637 19.65a.31.31 0 1 1 .502.365.31.31 0 0 1-.502-.366Z"/><path fill="#E6E7E8" d="M5.565 19.695a.31.31 0 1 1 .502.365.31.31 0 0 1-.502-.365Z"/><path fill="#898989" d="M5.601 19.672a.31.31 0 1 1 .069.433.31.31 0 0 1-.069-.433Z"/><path fill="#474747" d="M6.909 20.505Z"/><path fill="#E6E7E8" d="M6.844 20.561a.31.31 0 1 1 .554.282.31.31 0 0 1-.554-.282Z"/><path fill="#898989" d="M6.876 20.533Z"/><path fill="#474747" d="M8.298 21.15a.31.31 0 1 1 .59.191.31.31 0 0 1-.59-.19Z"/><path fill="#E6E7E8" d="M8.243 21.216a.31.31 0 1 1 .59.192.31.31 0 1 1-.59-.192Z"/><path fill="#898989" d="M8.27 21.183a.31.31 0 1 1 .59.192.31.31 0 1 1-.59-.192Z"/><path fill="#474747" d="M9.771 21.571a.31.31 0 1 1 .613.098.31.31 0 0 1-.613-.098Z"/><path fill="#E6E7E8" d="M9.728 21.644a.31.31 0 1 1 .257.354.31.31 0 0 1-.257-.355v.001Z"/><path fill="#898989" d="M9.75 21.608a.31.31 0 1 1 .612.096.31.31 0 0 1-.612-.096Z"/><path fill="#474747" d="M11.293 21.755a.31.31 0 1 1 .62.001.31.31 0 0 1-.62 0Z"/><path fill="#E6E7E8" d="M11.261 21.835a.31.31 0 1 1 .62 0 .31.31 0 0 1-.62 0Z"/><path fill="#898989" d="M11.277 21.795a.31.31 0 1 1 .62 0 .31.31 0 0 1-.62 0Z"/><path fill="#474747" d="M12.824 21.7a.31.31 0 1 1 0 0Z"/><path fill="#E6E7E8" d="M12.805 21.784Z"/><path fill="#898989" d="M12.814 21.742a.31.31 0 1 1 .355.257.31.31 0 0 1-.355-.258Z"/><path fill="#474747" d="M14.328 21.406a.31.31 0 0 1 .59-.192.31.31 0 0 1-.59.192Z"/><path fill="#E6E7E8" d="M14.322 21.492a.31.31 0 1 1 .591-.192.31.31 0 0 1-.591.192Z"/><path fill="#898989" d="M14.325 21.448a.31.31 0 1 1 .589-.191.31.31 0 0 1-.59.191Z"/><path fill="#474747" d="M15.766 20.88a.31.31 0 1 1 .555-.281.31.31 0 0 1-.555.281Z"/><path fill="#E6E7E8" d="M15.775 20.965a.31.31 0 1 1 .552-.282.31.31 0 0 1-.552.282Z"/><path fill="#898989" d="M15.771 20.923Z"/><path fill="#474747" d="M17.106 20.135a.311.311 0 0 1 .502-.365.31.31 0 0 1-.502.365Z"/><path fill="#E6E7E8" d="M17.127 20.218a.31.31 0 1 1 .502-.365.31.31 0 0 1-.502.365Z"/><path fill="#898989" d="M17.117 20.177a.31.31 0 1 1 .433.068.31.31 0 0 1-.434-.069h.001Z"/><path fill="#474747" d="M18.312 19.19a.31.31 0 1 1 .439-.439.31.31 0 0 1-.44.44Z"/><path fill="#E6E7E8" d="M18.346 19.27a.31.31 0 1 1 .44-.44.31.31 0 0 1-.44.44Z"/><path fill="#898989" d="M18.33 19.23a.31.31 0 1 1 .438-.439.31.31 0 0 1-.439.439Z"/><path fill="#474747" d="M19.355 18.068a.31.31 0 1 1 .366-.502.31.31 0 0 1-.366.502Z"/><path fill="#E6E7E8" d="M19.402 18.141a.31.31 0 1 1 .365-.502.31.31 0 0 1-.365.502Z"/><path fill="#898989" d="M19.378 18.105a.31.31 0 1 1 .433-.069.31.31 0 0 1-.433.069Z"/><path fill="#474747" d="M20.21 16.797a.31.31 0 1 1 .002 0h-.001Z"/><path fill="#E6E7E8" d="M20.267 16.862a.31.31 0 1 1 .28-.553.31.31 0 0 1-.28.553Z"/><path fill="#898989" d="M20.239 16.83a.31.31 0 0 1 .281-.553.31.31 0 0 1-.282.553Z"/><path fill="#474747" d="M20.857 15.408a.31.31 0 1 1 .192-.59.31.31 0 1 1-.192.59Z"/><path fill="#E6E7E8" d="M20.923 15.463a.31.31 0 1 1 .19-.591.31.31 0 0 1-.19.591Z"/><path fill="#898989" d="M20.89 15.435a.31.31 0 1 1 .192-.59.31.31 0 0 1-.193.59Z"/><path fill="#474747" d="M21.277 13.935a.31.31 0 1 1 .097-.613.31.31 0 0 1-.097.613Z"/><path fill="#E6E7E8" d="M21.35 13.978a.31.31 0 1 1 .098-.612.31.31 0 0 1-.096.613l-.001-.001Z"/><path fill="#898989" d="M21.314 13.956a.31.31 0 1 1 .096-.612.31.31 0 0 1-.096.612Z"/><path fill="#474747" d="M21.461 12.414a.31.31 0 1 1 0-.62.31.31 0 0 1 0 .62Z"/><path fill="#E6E7E8" d="M21.541 12.445a.31.31 0 1 1 .001-.62.31.31 0 0 1 0 .62Z"/><path fill="#898989" d="M21.502 12.429a.31.31 0 1 1 0-.62.31.31 0 0 1 0 .62Z"/><path fill="#474747" d="M21.407 10.882a.311.311 0 0 1-.098-.613.31.31 0 0 1 .098.613Z"/><path fill="#E6E7E8" d="M21.49 10.901a.31.31 0 1 1-.096-.612.31.31 0 0 1 .096.611v.001Z"/><path fill="#898989" d="M21.448 10.892a.31.31 0 1 1-.097-.611.31.31 0 0 1 .097.61Z"/><path fill="#474747" d="M21.112 9.378a.31.31 0 1 1 .199-.39.31.31 0 0 1-.2.391Z"/><path fill="#E6E7E8" d="M21.198 9.384a.31.31 0 1 1-.192-.588.31.31 0 0 1 .192.587Z"/><path fill="#898989" d="M21.155 9.381a.31.31 0 1 1-.19-.59.31.31 0 0 1 .19.59Z"/><path fill="#474747" d="M20.586 7.94a.311.311 0 0 1-.281-.553.311.311 0 0 1 .281.553Z"/><path fill="#E6E7E8" d="M20.672 7.931a.31.31 0 1 1-.282-.553.31.31 0 0 1 .282.553Z"/><path fill="#898989" d="M20.629 7.935a.31.31 0 1 1 .136-.417.31.31 0 0 1-.136.418v-.001Z"/><path fill="#474747" d="M19.841 6.6a.31.31 0 1 1-.365-.502.31.31 0 0 1 .365.502Z"/><path fill="#E6E7E8" d="M19.925 6.58a.31.31 0 1 1-.365-.503.31.31 0 0 1 .365.502Z"/><path fill="#898989" d="M19.883 6.59a.31.31 0 1 1 .069-.433.31.31 0 0 1-.069.433Z"/><path fill="#474747" d="M18.897 5.394a.31.31 0 1 1-.439-.439.31.31 0 0 1 .439.44Z"/><path fill="#E6E7E8" d="M18.975 5.36a.31.31 0 1 1-.438-.44.31.31 0 0 1 .438.44Z"/><path fill="#898989" d="M18.936 5.377a.31.31 0 1 1-.439-.44.31.31 0 0 1 .439.44Z"/><path fill="#474747" d="M17.775 4.35a.31.31 0 1 1-.502-.365.31.31 0 0 1 .502.366Z"/><path fill="#E6E7E8" d="M17.847 4.305a.31.31 0 1 1-.502-.365.31.31 0 0 1 .502.365Z"/><path fill="#898989" d="M17.81 4.328a.31.31 0 1 1-.501-.366.31.31 0 0 1 .502.366Z"/><path fill="#474747" d="M16.504 3.495a.31.31 0 1 1-.554-.282.31.31 0 0 1 .554.282Z"/><path fill="#E6E7E8" d="M16.568 3.439a.31.31 0 1 1-.553-.281.31.31 0 0 1 .553.281Z"/><path fill="#898989" d="M16.536 3.467a.31.31 0 1 1-.135-.417.31.31 0 0 1 .136.418h-.001Z"/><path fill="#474747" d="M15.114 2.85a.31.31 0 1 1-.588-.193.31.31 0 0 1 .587.192Z"/><path fill="#E6E7E8" d="M15.168 2.783a.31.31 0 1 1-.59-.192.31.31 0 0 1 .591.192Z"/><path fill="#898989" d="M15.141 2.817a.31.31 0 1 1-.589-.191.31.31 0 0 1 .59.19Z"/><path fill="#474747" d="M13.64 2.429a.31.31 0 1 1-.612-.098.31.31 0 0 1 .613.098Z"/><path fill="#E6E7E8" d="M13.684 2.355a.31.31 0 1 1-.613-.096.31.31 0 0 1 .614.096Z"/><path fill="#898989" d="M13.663 2.392a.31.31 0 1 1-.613-.097.31.31 0 0 1 .613.097Z"/><path fill="#292929" d="M14.688 9.565a.063.063 0 0 0 .025.085c.558.304 1 .636 1.335.939.032.029.022.083-.018.098-.153.056-.305.039-.456 0-.304-.079-.58-.225-.855-.368-.458-.238-.91-.492-1.4-.662a5.478 5.478 0 0 0-.36-.111.101.101 0 0 0-.085.024c-.528.599-1.215.88-1.985.99a5.813 5.813 0 0 1-1.978-.077l-.038-.014.092-.034c.411-.149.785-.357 1.097-.67.235-.236.402-.512.478-.84.007-.029.01-.06.018-.102-.173-.003-.339-.008-.504-.01-.782-.001-1.556.073-2.31.292-.83.241-1.574.632-2.16 1.283-.524.584-.842 1.262-.897 2.052-.01.133.003.268.015.4a.568.568 0 0 0 .368.494c.239.099.486.18.732.26.327.108.645.228.912.454.312.264.49.68.504 1.088-.154-.278-.416-.358-.693-.397-.287-.04-.578-.056-.867-.086a2.525 2.525 0 0 1-.251-.037.66.66 0 0 1-.349-.17c-.005.07-.004.133-.016.194a.83.83 0 0 1-.186.36c-.089.11-.18.216-.27.325-.299.36-.441.667-.334 1.173-.074-.099-.149-.195-.218-.297-.344-.502-.4-1.04-.202-1.61.077-.224.155-.447.228-.672a1.728 1.728 0 0 0-.03-1.18c-.328-.851-.364-1.723-.154-2.6.431-1.803 1.48-3.15 3.076-4.076a5.61 5.61 0 0 1 1.481-.584l.075-.02c.004 0 .008-.006.023-.015-.36-.606-.895-1-1.514-1.31.173-.008.345-.022.518-.023a5.295 5.295 0 0 1 1.868.313 4.3 4.3 0 0 1 1.468.89.255.255 0 0 0 .133.062c.83.12 1.614.365 2.324.82 1 .644 1.665 1.546 2.025 2.674.077.24.189.452.341.65.136.176.268.356.393.54a.97.97 0 0 1 .127.272v.002c.026.089-.079.156-.148.095a7.168 7.168 0 0 0-1.294-.894.062.062 0 0 0-.085.026v.004Z"/><path fill="url(#d)" d="M14.64 9.461a.063.063 0 0 0 .024.086c.559.304 1 .636 1.335.938.032.029.023.083-.018.098-.153.057-.304.04-.456 0-.304-.078-.579-.224-.855-.368-.458-.238-.909-.492-1.4-.661a5.478 5.478 0 0 0-.36-.112.102.102 0 0 0-.085.025c-.528.598-1.214.88-1.985.99a5.815 5.815 0 0 1-1.978-.078c-.008-.001-.014-.005-.038-.013l.092-.035a2.906 2.906 0 0 0 1.097-.67c.235-.235.403-.511.478-.839.007-.03.01-.06.018-.102-.172-.004-.338-.009-.504-.01-.782-.002-1.556.073-2.31.291-.83.242-1.573.633-2.16 1.284-.523.583-.842 1.262-.897 2.052-.01.132.003.267.015.4a.568.568 0 0 0 .368.493c.24.1.486.18.733.261.326.108.645.227.911.454.313.263.49.68.505 1.088-.154-.279-.417-.359-.694-.398-.287-.04-.578-.056-.866-.086a2.553 2.553 0 0 1-.252-.037.662.662 0 0 1-.348-.17c-.006.07-.004.133-.016.194a.83.83 0 0 1-.186.36c-.09.11-.182.216-.271.325-.298.36-.44.667-.334 1.174-.073-.1-.149-.196-.218-.298-.343-.502-.399-1.04-.202-1.61.077-.223.156-.447.228-.672a1.728 1.728 0 0 0-.03-1.179c-.328-.852-.364-1.724-.154-2.6.431-1.803 1.481-3.15 3.077-4.077a5.61 5.61 0 0 1 1.48-.584c.026-.006.05-.012.075-.02.005 0 .008-.005.024-.015-.361-.606-.895-1-1.515-1.31.173-.008.346-.021.518-.023a5.295 5.295 0 0 1 1.869.314 4.3 4.3 0 0 1 1.467.889.255.255 0 0 0 .134.062c.829.121 1.614.366 2.323.821 1 .643 1.665 1.546 2.025 2.673.077.24.189.452.341.65.137.176.269.357.393.541a.97.97 0 0 1 .127.271v.003c.027.088-.079.155-.148.095a7.17 7.17 0 0 0-1.293-.894.062.062 0 0 0-.086.026l.001.003Z"/><path fill="#4A4A4A" d="M14.64 9.461a.063.063 0 0 0 .024.086c.559.304 1 .636 1.335.938.032.029.023.083-.018.098-.153.057-.304.04-.456 0-.304-.078-.579-.224-.855-.368-.458-.238-.909-.492-1.4-.661a5.478 5.478 0 0 0-.36-.112.102.102 0 0 0-.085.025c-.528.598-1.214.88-1.985.99a5.815 5.815 0 0 1-1.978-.078c-.008-.001-.014-.005-.038-.013l.092-.035a2.906 2.906 0 0 0 1.097-.67c.235-.235.403-.511.478-.839.007-.03.01-.06.018-.102-.172-.004-.338-.009-.504-.01-.782-.002-1.556.073-2.31.291-.83.242-1.573.633-2.16 1.284-.523.583-.842 1.262-.897 2.052-.01.132.003.267.015.4a.568.568 0 0 0 .368.493c.24.1.486.18.733.261.326.108.645.227.911.454.313.263.49.68.505 1.088-.154-.279-.417-.359-.694-.398-.287-.04-.578-.056-.866-.086a2.553 2.553 0 0 1-.252-.037.662.662 0 0 1-.348-.17c-.006.07-.004.133-.016.194a.83.83 0 0 1-.186.36c-.09.11-.182.216-.271.325-.298.36-.44.667-.334 1.174-.073-.1-.149-.196-.218-.298-.343-.502-.399-1.04-.202-1.61.077-.223.156-.447.228-.672a1.728 1.728 0 0 0-.03-1.179c-.328-.852-.364-1.724-.154-2.6.431-1.803 1.481-3.15 3.077-4.077a5.61 5.61 0 0 1 1.48-.584c.026-.006.05-.012.075-.02.005 0 .008-.005.024-.015-.361-.606-.895-1-1.515-1.31.173-.008.346-.021.518-.023a5.295 5.295 0 0 1 1.869.314 4.3 4.3 0 0 1 1.467.889.255.255 0 0 0 .134.062c.829.121 1.614.366 2.323.821 1 .643 1.665 1.546 2.025 2.673.077.24.189.452.341.65.137.176.269.357.393.541a.97.97 0 0 1 .127.271v.003c.027.088-.079.155-.148.095a7.17 7.17 0 0 0-1.293-.894.062.062 0 0 0-.086.026l.001.003Z" opacity=".69"/><path fill="#292929" d="M9.1 15.063a.063.063 0 0 0-.037-.081 6.969 6.969 0 0 1-1.455-.74c-.036-.024-.034-.079.003-.1h.001a.743.743 0 0 1 .451-.064c.312.034.606.14.899.243.487.17.97.358 1.48.456.123.024.248.043.373.06a.1.1 0 0 0 .08-.036c.438-.668 1.077-1.044 1.825-1.262a5.823 5.823 0 0 1 1.969-.204c.007 0 .014.003.04.009l-.087.046a2.909 2.909 0 0 0-.991.818c-.2.267-.326.565-.355.899-.003.03-.003.06-.004.104.171-.021.337-.04.5-.062.775-.108 1.53-.293 2.246-.616.787-.357 1.468-.85 1.955-1.577.436-.652.655-1.37.598-2.159a2.41 2.41 0 0 0-.073-.393.569.569 0 0 0-.434-.437c-.251-.064-.506-.11-.761-.155-.34-.059-.67-.133-.968-.319-.346-.217-.582-.604-.653-1.005.192.254.464.296.742.296.29-.001.58-.026.87-.039.085-.003.17-.003.255.002a.66.66 0 0 1 .37.118c-.005-.07-.015-.132-.012-.193a.832.832 0 0 1 .134-.383c.072-.12.148-.24.222-.36.244-.4.341-.724.164-1.21.086.087.175.173.258.263.411.448.542.973.428 1.565-.045.233-.09.464-.13.698-.07.41-.006.8.197 1.163.445.796.604 1.655.521 2.553-.17 1.845-1.018 3.327-2.467 4.471-.42.332-.887.587-1.382.789-.024.01-.048.018-.072.03-.005 0-.008.005-.02.017.443.549 1.027.863 1.684 1.082-.17.032-.339.07-.51.096a5.29 5.29 0 0 1-1.893-.046 4.3 4.3 0 0 1-1.579-.671.265.265 0 0 0-.14-.044c-.838-.002-1.65-.133-2.417-.483-1.081-.495-1.867-1.295-2.384-2.359a2.061 2.061 0 0 0-.43-.595 10.67 10.67 0 0 1-.466-.48.943.943 0 0 1-.164-.25v-.003c-.04-.084.056-.165.133-.115.37.24.836.49 1.406.701a.063.063 0 0 0 .082-.037l-.002-.001Z"/><path fill="url(#e)" d="M9.052 14.96a.063.063 0 0 0-.038-.082 6.974 6.974 0 0 1-1.454-.74c-.036-.024-.035-.079.003-.099a.743.743 0 0 1 .451-.065c.313.034.606.14.9.243.487.17.97.358 1.479.456.123.024.248.044.373.06a.101.101 0 0 0 .08-.036c.438-.667 1.077-1.043 1.825-1.261a5.826 5.826 0 0 1 1.969-.204c.008 0 .014.003.04.008-.037.02-.062.034-.087.046a2.906 2.906 0 0 0-.991.819c-.2.267-.326.564-.355.898-.003.03-.002.061-.004.105.171-.022.337-.04.5-.063.775-.108 1.53-.292 2.246-.616.787-.357 1.468-.85 1.955-1.577.436-.652.655-1.37.598-2.158a2.401 2.401 0 0 0-.072-.394.569.569 0 0 0-.434-.436 10.37 10.37 0 0 0-.762-.155c-.34-.06-.67-.133-.968-.32-.346-.216-.581-.603-.653-1.005.192.255.464.297.743.296.29 0 .58-.026.87-.038.085-.004.17-.004.255.001a.66.66 0 0 1 .369.118c-.005-.069-.015-.131-.011-.193a.83.83 0 0 1 .133-.382c.072-.121.148-.24.222-.361.244-.399.341-.724.164-1.21.086.088.175.173.258.264.412.447.543.972.428 1.565-.045.232-.09.464-.13.697-.07.41-.005.801.197 1.164.445.796.604 1.654.521 2.552-.17 1.845-1.018 3.328-2.467 4.472-.42.33-.886.587-1.382.788l-.072.03c-.004.001-.007.006-.02.018.443.548 1.027.863 1.685 1.082-.17.032-.34.07-.51.095a5.29 5.29 0 0 1-1.893-.045 4.302 4.302 0 0 1-1.58-.672.264.264 0 0 0-.14-.044c-.838-.002-1.65-.133-2.416-.483-1.082-.494-1.868-1.294-2.384-2.358a2.062 2.062 0 0 0-.43-.595c-.16-.155-.317-.315-.467-.48a.943.943 0 0 1-.164-.251v-.003c-.04-.083.056-.165.133-.115.37.24.836.49 1.407.702a.063.063 0 0 0 .081-.037l-.001-.002Z"/><path fill="#4A4A4A" d="M9.052 14.96a.063.063 0 0 0-.038-.082 6.974 6.974 0 0 1-1.454-.74c-.036-.024-.035-.079.003-.099a.743.743 0 0 1 .451-.065c.313.034.606.14.9.243.487.17.97.358 1.479.456.123.024.248.044.373.06a.101.101 0 0 0 .08-.036c.438-.667 1.077-1.043 1.825-1.261a5.826 5.826 0 0 1 1.969-.204c.008 0 .014.003.04.008-.037.02-.062.034-.087.046a2.906 2.906 0 0 0-.991.819c-.2.267-.326.564-.355.898-.003.03-.002.061-.004.105.171-.022.337-.04.5-.063.775-.108 1.53-.292 2.246-.616.787-.357 1.468-.85 1.955-1.577.436-.652.655-1.37.598-2.158a2.401 2.401 0 0 0-.072-.394.569.569 0 0 0-.434-.436 10.37 10.37 0 0 0-.762-.155c-.34-.06-.67-.133-.968-.32-.346-.216-.581-.603-.653-1.005.192.255.464.297.743.296.29 0 .58-.026.87-.038.085-.004.17-.004.255.001a.66.66 0 0 1 .369.118c-.005-.069-.015-.131-.011-.193a.83.83 0 0 1 .133-.382c.072-.121.148-.24.222-.361.244-.399.341-.724.164-1.21.086.088.175.173.258.264.412.447.543.972.428 1.565-.045.232-.09.464-.13.697-.07.41-.005.801.197 1.164.445.796.604 1.654.521 2.552-.17 1.845-1.018 3.328-2.467 4.472-.42.33-.886.587-1.382.788l-.072.03c-.004.001-.007.006-.02.018.443.548 1.027.863 1.685 1.082-.17.032-.34.07-.51.095a5.29 5.29 0 0 1-1.893-.045 4.302 4.302 0 0 1-1.58-.672.264.264 0 0 0-.14-.044c-.838-.002-1.65-.133-2.416-.483-1.082-.494-1.868-1.294-2.384-2.358a2.062 2.062 0 0 0-.43-.595c-.16-.155-.317-.315-.467-.48a.943.943 0 0 1-.164-.251v-.003c-.04-.083.056-.165.133-.115.37.24.836.49 1.407.702a.063.063 0 0 0 .081-.037l-.001-.002Z" opacity=".69"/><path fill="#292929" d="m12.664 11.811-.486-.494-.451-.46h-.001l-.899.934c-.168.175-.244.449-.153.675a.474.474 0 0 0 .106.166l.003.003c.136.148.35.227.55.214.2-.013.438-.137.496-.343a.437.437 0 0 0-.042-.305s-.025-.072-.099-.13c-.073-.06-.194-.104-.386-.046l-.091.031-.245.083a.072.072 0 0 1-.09-.048.062.062 0 0 1 .007-.057c.017-.027.12-.097.17-.13 0 0 .053-.064.098-.133a.502.502 0 0 1 .308-.218.643.643 0 0 1 .364.036c.084.03.175.079.275.15.019.013.04.023.062.024a.262.262 0 0 1 .137.05c.055.04.105.112.118.244 0 0-.097-.111-.252-.102h-.008l.016.01c.037.026.123.108.103.3 0 0-.011.195-.198.377a.117.117 0 0 0 .067.2h.002c.252.032.481-.122.6-.336.129-.233.11-.5-.08-.694Zm-.935-.736.165.182-.161.19-.047-.05-.125-.133.165-.186.003-.003Z"/><path fill="#292929" d="M12.197 13.203a.044.044 0 0 1-.043.045l-.636.006a.044.044 0 0 1-.044-.043c0-.014.007-.029.02-.037.02-.014.051-.008.075-.016a.18.18 0 0 0 .06-.035.41.41 0 0 0 .085-.115l.03-.057c.034-.064.066-.132.093-.2.037.11.087.211.148.31a.205.205 0 0 0 .168.1c.023.001.043.018.043.042h.001Z"/><path fill="url(#f)" d="m12.616 11.764-.438-.446-.452-.46-.047-.049-.9.935c-.183.19-.257.5-.124.737l.018.03c.03.044.066.085.108.121l.003.003a.716.716 0 0 0 .5.166c.201-.013.44-.137.497-.343a.437.437 0 0 0-.04-.305s-.015-.04-.05-.084c-.056-.067-.162-.144-.349-.113a.727.727 0 0 0-.086.02l-.337.115a.068.068 0 0 1-.04 0c-.043-.013-.07-.063-.043-.105.017-.026.12-.097.17-.13 0 0 .053-.064.098-.133a.504.504 0 0 1 .307-.218.678.678 0 0 1 .436.065c.064.03.132.069.204.12.018.014.04.023.062.024.044.003.126.02.185.097.033.043.06.107.07.197 0 0-.1-.115-.26-.102 0 0 .027.012.056.047l.008.01c.035.047.068.125.055.253 0 0-.011.195-.198.377a.117.117 0 0 0 .066.2h.003c.252.032.48-.122.599-.336.129-.232.11-.5-.08-.694Zm-.931-.366-.172-.182.168-.19.046.05.12.133-.16.186-.002.002v.001Z"/><path fill="url(#g)" d="M12.149 13.156a.044.044 0 0 1-.044.044l-.636.007a.044.044 0 0 1-.044-.043c0-.015.008-.03.02-.037.021-.014.052-.008.075-.017a.181.181 0 0 0 .06-.035.41.41 0 0 0 .085-.115l.03-.056c.035-.065.067-.132.093-.2.037.11.087.21.148.309a.205.205 0 0 0 .168.1c.023.002.043.019.043.043h.002Z"/><g fill="#4A4A4A" opacity=".69"><path d="m12.616 11.764-.438-.446-.452-.46-.047-.049-.9.935c-.183.19-.257.5-.124.737l.018.03c.03.044.066.085.108.121l.003.003a.716.716 0 0 0 .5.166c.201-.013.44-.137.497-.343a.437.437 0 0 0-.04-.305s-.015-.04-.05-.084c-.056-.067-.162-.144-.349-.113a.727.727 0 0 0-.086.02l-.337.115a.068.068 0 0 1-.04 0c-.043-.013-.07-.063-.043-.105.017-.026.12-.097.17-.13 0 0 .053-.064.098-.133a.504.504 0 0 1 .307-.218.678.678 0 0 1 .436.065c.064.03.132.069.204.12.018.014.04.023.062.024.044.003.126.02.185.097.033.043.06.107.07.197 0 0-.1-.115-.26-.102 0 0 .027.012.056.047l.008.01c.035.047.068.125.055.253 0 0-.011.195-.198.377a.117.117 0 0 0 .066.2h.003c.252.032.48-.122.599-.336.129-.232.11-.5-.08-.694Zm-.931-.366-.172-.182.168-.19.046.05.12.133-.16.186-.002.002v.001Z"/><path d="M12.149 13.156a.044.044 0 0 1-.044.044l-.636.007a.044.044 0 0 1-.044-.043c0-.015.008-.03.02-.037.021-.014.052-.008.075-.017a.181.181 0 0 0 .06-.035.41.41 0 0 0 .085-.115l.03-.056c.035-.065.067-.132.093-.2.037.11.087.21.148.309a.205.205 0 0 0 .168.1c.023.002.043.019.043.043h.002Z"/></g><path fill="url(#h)" d="m19.463 2.939-.134.116-.223.194-.17.147-8.465 7.336-.166.145-3.45 2.988-.158.138-4.34 3.763-.21.181-.221.193-.098.084A11.632 11.632 0 0 1 .142 13.77l.034-.029.254-.219.244-.214 7.74-6.716.05-.043 1.36-1.183h.002l.328-.285 1.226-1.064.058-.05.84-.728.002-.002 2.473-2.146.206-.178.188-.163.198-.172a11.702 11.702 0 0 1 4.119 2.362h-.001Z"/><path fill="url(#i)" d="m23.407 11.36-.008.008-.476.408-.225.194-7.638 6.563-.18.155-.785.676-.139.12-.053.045-.223.19-.625.538-.212.182-2.626 2.258-.266.227-.35.301-.222.192a11.615 11.615 0 0 1-2.976-1.036l.172-.148.274-.235.222-.192 2.502-2.15.169-.145.774-.665.15-.13.59-.505.24-.207 1.014-.871.229-.197 4.336-3.726.147-.126h.002l1.86-1.6.19-.165 3.018-2.593.185-.158.349-.3.059-.052c.311.997.492 2.052.523 3.143v.001Z"/><defs><linearGradient id="a" x1="7.894" x2="15.519" y1="23.013" y2=".869" gradientUnits="userSpaceOnUse"><stop stop-color="#A7A7A7"/><stop offset=".51" stop-color="#BABABA"/><stop offset="1" stop-color="#D2D2D2"/></linearGradient><linearGradient id="b" x1="11.698" x2="11.698" y1="1.133" y2="22.797" gradientUnits="userSpaceOnUse"><stop stop-color="#3B3B3B"/><stop offset=".22" stop-color="#4F4F4F"/><stop offset=".58" stop-color="#787878"/><stop offset="1" stop-color="#EAEAEA"/></linearGradient><linearGradient id="c" x1="8.272" x2="15.172" y1="21.977" y2="1.937" gradientUnits="userSpaceOnUse"><stop stop-color="#A7A7A7"/><stop offset=".51" stop-color="#BABABA"/><stop offset="1" stop-color="#D2D2D2"/></linearGradient><linearGradient id="h" x1="-3.753" x2="17.158" y1="20.88" y2="1.558" gradientUnits="userSpaceOnUse"><stop stop-color="#fff" stop-opacity="0"/><stop offset="1" stop-color="#fff" stop-opacity=".3"/></linearGradient><linearGradient id="i" x1="3.224" x2="24.1" y1="27.664" y2="8.375" gradientUnits="userSpaceOnUse"><stop stop-color="#fff" stop-opacity="0"/><stop offset="1" stop-color="#fff" stop-opacity=".3"/></linearGradient><radialGradient id="d" cx="0" cy="0" r="1" gradientTransform="rotate(19.77 -27.862 33.056) scale(6.2205)" gradientUnits="userSpaceOnUse"><stop stop-color="#fff"/><stop offset=".6" stop-color="#DDD"/><stop offset="1" stop-color="#CCC"/></radialGradient><radialGradient id="e" cx="0" cy="0" r="1" gradientTransform="rotate(19.77 -27.967 46.737) scale(6.17404)" gradientUnits="userSpaceOnUse"><stop stop-color="#fff"/><stop offset=".6" stop-color="#DDD"/><stop offset="1" stop-color="#CCC"/></radialGradient><radialGradient id="f" cx="0" cy="0" r="1" gradientTransform="translate(11.683 11.806) scale(1.04729)" gradientUnits="userSpaceOnUse"><stop stop-color="#fff"/><stop offset=".6" stop-color="#DDD"/><stop offset="1" stop-color="#CCC"/></radialGradient><radialGradient id="g" cx="0" cy="0" r="1" gradientTransform="translate(11.788 12.955) scale(.31152)" gradientUnits="userSpaceOnUse"><stop stop-color="#fff"/><stop offset=".6" stop-color="#DDD"/><stop offset="1" stop-color="#CCC"/></radialGradient></defs></svg>